<?xml version="1.0" encoding="UTF-8"?>
<svg version="1.1" xmlns="http://www.w3.org/2000/svg" width="512" height="512">
<path d="M0 0 C0.86600327 -0.0071553 1.73200653 -0.01431061 2.62425232 -0.02168274 C3.57689468 -0.02437164 4.52953705 -0.02706055 5.51104736 -0.02983093 C7.01394066 -0.03968773 7.01394066 -0.03968773 8.54719543 -0.04974365 C11.87792025 -0.06952142 15.20859968 -0.08115481 18.53936768 -0.09111023 C19.67847847 -0.09518576 20.81758926 -0.09926128 21.99121857 -0.10346031 C28.0308667 -0.12434911 34.07049198 -0.13863354 40.11016846 -0.147995 C46.32373502 -0.1590107 52.53693864 -0.19334651 58.75037766 -0.23316669 C63.54625062 -0.25944238 68.342039 -0.26769698 73.1379776 -0.27127647 C75.42628658 -0.27612129 77.71459232 -0.28767448 80.00283051 -0.30631447 C102.89872533 -0.4810936 120.32396099 3.41656391 137.86749268 19.14717102 C138.82075439 19.9592804 138.82075439 19.9592804 139.79327393 20.78779602 C154.25999574 33.9575014 163.90514607 56.93594474 165.04449463 76.12886047 C165.51072566 99.95493812 161.74684654 117.20405162 152.86749268 139.14717102 C153.78272705 139.2683429 154.69796143 139.38951477 155.64093018 139.51435852 C160.58301319 140.48362904 164.14739948 142.83126241 167.16436768 146.89326477 C171.83668441 154.76510274 171.65579468 162.33975537 169.74249268 171.08467102 C166.73304774 182.10063921 160.34660817 191.24153598 150.52374268 197.16279602 C144.48737671 200.42930536 138.83949409 203.00773099 131.86749268 203.14717102 C131.53749268 204.34342102 131.20749268 205.53967102 130.86749268 206.77217102 C125.36281953 223.18281631 113.45298506 235.76353452 101.84405518 248.11982727 C101.31892334 248.67936096 100.7937915 249.23889465 100.25274658 249.81538391 C98.86749268 251.14717102 98.86749268 251.14717102 96.86749268 252.14717102 C96.21194148 254.67450337 96.21194148 254.67450337 95.86749268 257.14717102 C96.68967285 257.33803284 97.51185303 257.52889465 98.35894775 257.72554016 C111.92604329 260.99094991 125.26496396 265.0142783 138.63140869 269.01094055 C140.55770773 269.58548081 142.48498397 270.15661036 144.41265869 270.72651672 C148.17396825 271.83921251 151.93309174 272.95902032 155.69171143 274.08076477 C157.38598518 274.58101418 157.38598518 274.58101418 159.11448669 275.09136963 C183.72421563 282.48552417 201.65902254 293.30356014 214.30499268 316.27217102 C215.16529048 317.89393345 216.02180151 319.51774408 216.86749268 321.14717102 C217.52749268 320.81717102 218.18749268 320.48717102 218.86749268 320.14717102 C223.65505369 319.55402187 227.56306207 319.39781727 231.80499268 321.83467102 C234.43507244 326.05873852 235.0331567 330.07549472 235.98468018 334.92060852 C237.06402209 338.86545993 238.74012475 341.27975225 241.46514893 344.26826477 C245.01070988 349.01872387 245.25679577 354.47423879 245.30499268 360.20967102 C245.33786377 360.90383118 245.37073486 361.59799133 245.40460205 362.31318665 C245.44518214 366.19780837 245.00437486 367.96893901 242.61749268 371.07685852 C238.74870379 373.98944106 235.65571785 374.61000474 230.86749268 374.14717102 C228.08825206 372.65829212 226.07992284 371.35960119 223.86749268 369.14717102 C224.52749268 377.39717102 225.18749268 385.64717102 225.86749268 394.14717102 C233.07683226 394.02925777 233.07683226 394.02925777 240.28546143 393.87690735 C247.78208323 393.8154488 253.19418116 394.80960915 259.61749268 398.89717102 C265.23048792 404.51016626 266.97936721 410.43934833 267.02862549 418.20991516 C267.03823303 419.4354158 267.04784058 420.66091644 267.05773926 421.92355347 C267.0625901 423.25980949 267.06686822 424.5960677 267.07061768 425.93232727 C267.07344505 426.60998075 267.07627243 427.28763424 267.07918549 427.98582268 C267.0941621 431.57761396 267.10339899 435.16936529 267.10772705 438.76118469 C267.11318482 442.44376514 267.13715941 446.12597082 267.16569901 449.80843449 C267.18447769 452.66290287 267.18953917 455.51728411 267.19106293 458.37180901 C267.19550342 460.38063742 267.2140813 462.38941891 267.23303223 464.39816284 C267.19882105 478.6198534 263.74309758 490.58715472 254.01983643 501.22529602 C245.23452761 509.06989119 235.40170575 512.45106209 223.82061768 512.48310852 C222.96876892 512.48976532 222.11692017 512.49642212 221.23925781 512.50328064 C219.44413394 512.51336007 217.64897295 512.51809913 215.8538208 512.51777649 C213.13898352 512.52213651 210.42579167 512.55846882 207.71124268 512.59638977 C193.66467785 512.68866753 182.80646905 510.63010617 171.86749268 501.14717102 C163.51929414 492.25522009 158.86749268 482.3905688 158.86749268 470.14717102 C146.32749268 470.14717102 133.78749268 470.14717102 120.86749268 470.14717102 C120.53749268 475.75717102 120.20749268 481.36717102 119.86749268 487.14717102 C116.93921854 496.4644069 113.15628134 503.29528796 104.67999268 508.48701477 C98.74534971 511.55251969 93.73366827 512.29577719 87.07011414 512.29434204 C85.70477912 512.29985707 85.70477912 512.29985707 84.31186157 512.30548352 C81.24893804 512.31653363 78.18604841 512.32036649 75.12310791 512.32417297 C72.93202099 512.33043671 70.74093514 512.33708343 68.54985046 512.34408569 C62.58674062 512.36150577 56.62363881 512.37205062 50.66050982 512.38029122 C46.93483068 512.38544019 43.20915403 512.39151602 39.48347664 512.39780235 C28.49545679 512.41576541 17.50744154 512.43014257 6.5194096 512.43797876 C4.5087283 512.43941722 2.498047 512.44086859 0.48736572 512.44233704 C-0.51100143 512.44306265 -0.51100143 512.44306265 -1.52953761 512.44380292 C-12.30234411 512.45209647 -23.07503933 512.47742135 -33.84779728 512.50991771 C-44.91528538 512.54303003 -55.98271414 512.56067125 -67.05025142 512.56419533 C-73.26124714 512.56654527 -79.47206706 512.57549847 -85.68301582 512.60065651 C-91.52955862 512.62395509 -97.37581011 512.62816306 -103.22238731 512.61789513 C-105.36451309 512.61740007 -107.50665328 512.62371164 -109.64873505 512.63745117 C-112.58158435 512.65520513 -115.51339217 512.64804638 -118.44624329 512.63491821 C-119.70683975 512.65137208 -119.70683975 512.65137208 -120.99290282 512.66815835 C-130.64038679 512.56446328 -138.29617787 508.87584223 -145.22235107 502.29170227 C-152.5949339 494.01450805 -153.46172894 483.58104948 -154.09393311 472.97651672 C-154.21141403 471.16047188 -154.21141403 471.16047188 -154.33126831 469.30773926 C-154.54347177 466.00197461 -154.74877053 462.69592354 -154.95072794 459.38952661 C-155.16445983 455.91414462 -155.38644556 452.4392888 -155.60733032 448.96435547 C-155.97728442 443.12498056 -156.34126323 437.28525767 -156.70135498 431.44526672 C-157.11601031 424.72105873 -157.53863942 417.9973908 -157.96593106 411.27397472 C-158.42277722 404.08430956 -158.87382097 396.89428872 -159.32315969 389.70415092 C-159.45201638 387.648271 -159.58192374 385.59245977 -159.71207047 383.53666115 C-159.9558935 379.67965096 -160.19320863 375.82225445 -160.42987061 371.96479797 C-160.50153442 370.84074554 -160.57319824 369.71669312 -160.64703369 368.55857849 C-162.29533969 341.26979947 -162.29533969 341.26979947 -153.86297607 330.96357727 C-148.09524593 324.90941358 -141.45317068 320.54440031 -132.95721436 319.91011047 C-129.34429478 319.8525991 -125.7450656 319.8852836 -122.13250732 319.95967102 C-120.25498779 319.97997375 -120.25498779 319.97997375 -118.33953857 320.00068665 C-115.27007617 320.03583316 -112.20152223 320.08503876 -109.13250732 320.14717102 C-108.67436646 318.73709778 -108.67436646 318.73709778 -108.20697021 317.29853821 C-102.55140448 300.71093482 -88.17643281 289.43424304 -73.0556221 281.83806515 C-65.47808515 278.1794875 -57.49947761 275.94864791 -49.42938232 273.65107727 C-47.77234497 273.16893293 -46.1156326 272.68567044 -44.45922852 272.20135498 C-40.14978622 270.9448807 -35.83576547 269.70491067 -31.52062988 268.46815491 C-27.98057345 267.45035695 -24.44412447 266.42034639 -20.90775681 265.38981724 C-16.68701842 264.16019039 -12.46465472 262.93619816 -8.24188232 261.71357727 C-7.43795799 261.48057985 -6.63403366 261.24758244 -5.80574799 261.00752449 C-3.5454193 260.35382131 -1.28401476 259.70400384 0.97784424 259.05561829 C1.64996445 258.86089935 2.32208466 258.66618042 3.01457214 258.46556091 C7.63718785 257.14717102 7.63718785 257.14717102 9.86749268 257.14717102 C9.41580247 253.5119583 9.41580247 253.5119583 7.40655518 250.54951477 C6.77491455 250.06611633 6.14327393 249.5827179 5.49249268 249.08467102 C-8.52799581 237.44265826 -19.61262914 222.18896645 -26.13250732 205.14717102 C-26.13250732 204.48717102 -26.13250732 203.82717102 -26.13250732 203.14717102 C-26.79895264 203.0724054 -27.46539795 202.99763977 -28.15203857 202.92060852 C-40.14983272 201.20903509 -49.61736694 195.7092368 -57.13250732 186.14717102 C-62.83876317 176.96328286 -66.39169363 167.05366167 -65.13250732 156.14717102 C-63.48693434 149.48079871 -60.62894386 144.79576118 -54.82000732 140.95967102 C-51.45415688 139.04447767 -47.85432614 138.15655318 -44.13250732 137.14717102 C-44.44478271 136.4934552 -44.75705811 135.83973938 -45.07879639 135.16621399 C-55.42027274 113.40012368 -64.83814516 91.3825234 -57.23797607 66.90498352 C-53.43788295 57.42489256 -48.95336965 48.8341746 -42.13250732 41.14717102 C-41.38807373 40.26351868 -41.38807373 40.26351868 -40.62860107 39.36201477 C-36.94690195 35.31122301 -32.68349573 32.32041608 -28.13250732 29.33467102 C-27.55105957 28.94924133 -26.96961182 28.56381165 -26.37054443 28.16670227 C-22.34421211 25.6148254 -18.71065969 24.25083275 -14.13250732 23.14717102 C-14.19438232 22.01279602 -14.25625732 20.87842102 -14.32000732 19.70967102 C-14.29729661 13.30524942 -12.74643483 8.03664713 -8.57000732 3.14717102 C-5.43979229 0.57878946 -3.94850821 0.02237087 0 0 Z " fill="#D9DDDE" transform="translate(203.13250732421875,-0.1471710205078125)"/>
<path d="M0 0 C0.86600327 -0.0071553 1.73200653 -0.01431061 2.62425232 -0.02168274 C3.57689468 -0.02437164 4.52953705 -0.02706055 5.51104736 -0.02983093 C7.01394066 -0.03968773 7.01394066 -0.03968773 8.54719543 -0.04974365 C11.87792025 -0.06952142 15.20859968 -0.08115481 18.53936768 -0.09111023 C20.24803387 -0.09722352 20.24803387 -0.09722352 21.99121857 -0.10346031 C28.0308667 -0.12434911 34.07049198 -0.13863354 40.11016846 -0.147995 C46.32373502 -0.1590107 52.53693864 -0.19334651 58.75037766 -0.23316669 C63.54625062 -0.25944238 68.342039 -0.26769698 73.1379776 -0.27127647 C75.42628658 -0.27612129 77.71459232 -0.28767448 80.00283051 -0.30631447 C102.89872533 -0.4810936 120.32396099 3.41656391 137.86749268 19.14717102 C138.50300049 19.68857727 139.1385083 20.22998352 139.79327393 20.78779602 C154.25999574 33.9575014 163.90514607 56.93594474 165.04449463 76.12886047 C165.51072566 99.95493812 161.74684654 117.20405162 152.86749268 139.14717102 C153.78272705 139.2683429 154.69796143 139.38951477 155.64093018 139.51435852 C160.58301319 140.48362904 164.14739948 142.83126241 167.16436768 146.89326477 C171.83668441 154.76510274 171.65579468 162.33975537 169.74249268 171.08467102 C166.73304774 182.10063921 160.34660817 191.24153598 150.52374268 197.16279602 C144.48737671 200.42930536 138.83949409 203.00773099 131.86749268 203.14717102 C131.53749268 204.34342102 131.20749268 205.53967102 130.86749268 206.77217102 C125.36281953 223.18281631 113.45298506 235.76353452 101.84405518 248.11982727 C101.31892334 248.67936096 100.7937915 249.23889465 100.25274658 249.81538391 C98.86749268 251.14717102 98.86749268 251.14717102 96.86749268 252.14717102 C96.84767334 253.01406555 96.827854 253.88096008 96.80743408 254.77412415 C96.72881961 258.0246807 96.64211097 261.27489759 96.55010986 264.52510071 C96.51208954 265.92540837 96.47719234 267.32580476 96.44561768 268.72627258 C96.08393699 284.57240777 93.23771199 297.2415106 82.09014893 309.02607727 C75.43790907 315.3246193 67.10972726 319.6691244 57.86749268 320.14717102 C56.92389893 320.22064758 55.98030518 320.29412415 55.00811768 320.36982727 C43.42119948 320.91036532 33.65414539 317.474154 24.79718018 309.96357727 C19.44175003 304.92253472 15.82289398 299.88605709 12.86749268 293.14717102 C12.47561768 292.28092102 12.08374268 291.41467102 11.67999268 290.52217102 C9.95087362 285.46782302 9.76828617 280.54869529 9.83233643 275.24482727 C9.82345494 273.25044032 9.81454426 271.25605318 9.80426025 269.26167297 C9.80474792 267.89540008 9.81773916 266.5290736 9.84332275 265.16304016 C10.18956438 257.07202952 10.18956438 257.07202952 7.2131958 249.84004211 C5.18525116 248.08450081 3.1069493 246.61870897 0.86749268 245.14717102 C-10.7843357 233.72003355 -20.27455865 220.4588011 -26.13250732 205.14717102 C-26.13250732 204.48717102 -26.13250732 203.82717102 -26.13250732 203.14717102 C-26.79895264 203.0724054 -27.46539795 202.99763977 -28.15203857 202.92060852 C-40.14983272 201.20903509 -49.61736694 195.7092368 -57.13250732 186.14717102 C-62.83876317 176.96328286 -66.39169363 167.05366167 -65.13250732 156.14717102 C-63.48693434 149.48079871 -60.62894386 144.79576118 -54.82000732 140.95967102 C-51.45415688 139.04447767 -47.85432614 138.15655318 -44.13250732 137.14717102 C-44.44478271 136.4934552 -44.75705811 135.83973938 -45.07879639 135.16621399 C-55.42027274 113.40012368 -64.83814516 91.3825234 -57.23797607 66.90498352 C-53.43788295 57.42489256 -48.95336965 48.8341746 -42.13250732 41.14717102 C-41.63621826 40.55806946 -41.1399292 39.9689679 -40.62860107 39.36201477 C-36.94690195 35.31122301 -32.68349573 32.32041608 -28.13250732 29.33467102 C-27.55105957 28.94924133 -26.96961182 28.56381165 -26.37054443 28.16670227 C-22.34421211 25.6148254 -18.71065969 24.25083275 -14.13250732 23.14717102 C-14.19438232 22.01279602 -14.25625732 20.87842102 -14.32000732 19.70967102 C-14.29729661 13.30524942 -12.74643483 8.03664713 -8.57000732 3.14717102 C-5.43979229 0.57878946 -3.94850821 0.02237087 0 0 Z " fill="#F4C8AF" transform="translate(203.13250732421875,-0.1471710205078125)"/>
<path d="M0 0 C14.42721824 3.34915042 28.57896403 7.62236777 42.76391602 11.86376953 C44.69021505 12.43830979 46.6174913 13.00943934 48.54516602 13.5793457 C52.30647558 14.69204148 56.06559907 15.8118493 59.82421875 16.93359375 C60.95373459 17.26709335 62.08325043 17.60059296 63.24699402 17.94419861 C87.85672295 25.33835315 105.79152986 36.15638912 118.4375 59.125 C119.2977978 60.74676243 120.15430883 62.37057306 121 64 C121.66 63.67 122.32 63.34 123 63 C127.78756101 62.40685085 131.69556939 62.25064625 135.9375 64.6875 C138.56757976 68.9115675 139.16566402 72.9283237 140.1171875 77.7734375 C141.19652941 81.71828891 142.87263207 84.13258123 145.59765625 87.12109375 C149.1432172 91.87155285 149.38930309 97.32706777 149.4375 103.0625 C149.48680664 104.10374023 149.48680664 104.10374023 149.53710938 105.16601562 C149.57768947 109.05063735 149.13688219 110.82176799 146.75 113.9296875 C142.88121111 116.84227004 139.78822518 117.46283372 135 117 C132.22075938 115.5111211 130.21243017 114.21243017 128 112 C128.99 124.375 128.99 124.375 130 137 C137.20933959 136.88208675 137.20933959 136.88208675 144.41796875 136.72973633 C151.91459055 136.66827777 157.32668849 137.66243813 163.75 141.75 C169.36299524 147.36299524 171.11187453 153.29217731 171.16113281 161.06274414 C171.17074036 162.28824478 171.1803479 163.51374542 171.19024658 164.77638245 C171.19509742 166.11263847 171.19937555 167.44889668 171.203125 168.78515625 C171.20736607 169.80163648 171.20736607 169.80163648 171.21169281 170.83865166 C171.22666942 174.43044293 171.23590631 178.02219427 171.24023438 181.61401367 C171.24569215 185.29659412 171.26966673 188.9787998 171.29820633 192.66126347 C171.31698501 195.51573185 171.32204649 198.37011309 171.32357025 201.22463799 C171.32801074 203.2334664 171.34658863 205.24224789 171.36553955 207.25099182 C171.33132837 221.47268238 167.8756049 233.4399837 158.15234375 244.078125 C149.36703493 251.92272017 139.53421308 255.30389107 127.953125 255.3359375 C127.10127625 255.3425943 126.24942749 255.3492511 125.37176514 255.35610962 C123.57664126 255.36618905 121.78148027 255.37092811 119.98632812 255.37060547 C117.27149084 255.37496549 114.55829899 255.4112978 111.84375 255.44921875 C97.79718517 255.54149651 86.93897637 253.48293515 76 244 C67.65180147 235.10804907 63 225.24339778 63 213 C50.46 213 37.92 213 25 213 C25 192.33238346 25 192.33238346 25.45898438 185.64233398 C25.50775223 184.8605629 25.55652008 184.07879181 25.60676575 183.27333069 C25.71072927 181.61690977 25.81714606 179.96064107 25.92597961 178.304533 C26.09976476 175.65437077 26.26577942 173.00381056 26.43005371 170.3530426 C26.89771277 162.83000082 27.37955604 155.30788075 27.86376953 147.78588867 C29.56817045 122.14760627 29.56817045 122.14760627 30.46875 96.47265625 C30.51739197 95.05393471 30.51739197 95.05393471 30.5670166 93.60655212 C30.59632147 85.11404892 27.38383869 78.36692111 21.6875 72.125 C13.77788406 64.81851381 5.46317685 63.87282588 -4.89453125 63.68359375 C-6.31556404 63.6524221 -6.31556404 63.6524221 -7.76530457 63.62062073 C-10.7809651 63.55542222 -13.7967101 63.49637868 -16.8125 63.4375 C-18.86133674 63.39428652 -20.91016504 63.35067134 -22.95898438 63.30664062 C-27.97257047 63.19977134 -32.98624123 63.09842069 -38 63 C-38 62.67 -38 62.34 -38 62 C-36.7625 61.79375 -35.525 61.5875 -34.25 61.375 C-22.6974625 58.76930148 -13.75455787 52.86730552 -7.25 43.0625 C-2.73222726 35.37931412 -1.00448114 27.83847724 -0.68359375 18.9453125 C-0.62075195 17.28242188 -0.62075195 17.28242188 -0.55664062 15.5859375 C-0.51732422 14.44382812 -0.47800781 13.30171875 -0.4375 12.125 C-0.37272461 10.37703125 -0.37272461 10.37703125 -0.30664062 8.59375 C-0.20098371 5.72927375 -0.09888201 2.86471679 0 0 Z " fill="#3D87EB" transform="translate(299,257)"/>
<path d="M0 0 C0.86600327 -0.0071553 1.73200653 -0.01431061 2.62425232 -0.02168274 C3.57689468 -0.02437164 4.52953705 -0.02706055 5.51104736 -0.02983093 C7.01394066 -0.03968773 7.01394066 -0.03968773 8.54719543 -0.04974365 C11.87792025 -0.06952142 15.20859968 -0.08115481 18.53936768 -0.09111023 C20.24803387 -0.09722352 20.24803387 -0.09722352 21.99121857 -0.10346031 C28.0308667 -0.12434911 34.07049198 -0.13863354 40.11016846 -0.147995 C46.32373502 -0.1590107 52.53693864 -0.19334651 58.75037766 -0.23316669 C63.54625062 -0.25944238 68.342039 -0.26769698 73.1379776 -0.27127647 C75.42628658 -0.27612129 77.71459232 -0.28767448 80.00283051 -0.30631447 C102.89872533 -0.4810936 120.32396099 3.41656391 137.86749268 19.14717102 C138.50300049 19.68857727 139.1385083 20.22998352 139.79327393 20.78779602 C154.25999574 33.9575014 163.90514607 56.93594474 165.04449463 76.12886047 C165.51131145 99.98487397 161.71913992 117.16844497 152.86749268 139.14717102 C147.91749268 139.14717102 142.96749268 139.14717102 137.86749268 139.14717102 C137.8288208 137.1729718 137.8288208 137.1729718 137.78936768 135.15888977 C137.32315785 118.7744988 134.76997786 107.45246188 122.55499268 95.89717102 C113.46908709 88.12231892 102.91388133 85.83890746 91.21368408 85.87251282 C90.28248245 85.86740189 89.35128082 85.86229095 88.39186096 85.85702515 C85.33419242 85.84320187 82.27675113 85.84408049 79.21905518 85.84638977 C77.07968056 85.84249879 74.9403067 85.83816329 72.80093384 85.83340454 C68.32407117 85.82595788 63.84728738 85.82622229 59.37042236 85.83149719 C53.65215488 85.83728892 47.93421161 85.8203602 42.2159977 85.79715252 C37.79945 85.78237349 33.38297963 85.78154917 28.96641159 85.78466225 C26.85902642 85.78415111 24.75163668 85.77895256 22.64427567 85.76885033 C19.68933695 85.75642261 16.73502016 85.76331555 13.78009033 85.77485657 C12.49233955 85.76339096 12.49233955 85.76339096 11.17857361 85.75169373 C2.99710312 85.82181875 -4.59560119 87.7203765 -11.50750732 92.20967102 C-16.02323095 95.10002832 -16.02323095 95.10002832 -18.29656982 96.08076477 C-20.64053806 97.44226121 -21.06060468 98.68941935 -22.13250732 101.14717102 C-23.58712393 103.30275886 -25.08698832 105.42097048 -26.59735107 107.53779602 C-30.81095961 114.69985837 -31.62302589 120.98651145 -31.82000732 129.14717102 C-31.85416748 130.11267883 -31.88832764 131.07818665 -31.92352295 132.07295227 C-32.00522495 134.43063872 -32.07055954 136.78888286 -32.13250732 139.14717102 C-35.76250732 139.14717102 -39.39250732 139.14717102 -43.13250732 139.14717102 C-65.31035198 92.90333972 -65.31035198 92.90333972 -57.23797607 66.90498352 C-53.43788295 57.42489256 -48.95336965 48.8341746 -42.13250732 41.14717102 C-41.63621826 40.55806946 -41.1399292 39.9689679 -40.62860107 39.36201477 C-36.94690195 35.31122301 -32.68349573 32.32041608 -28.13250732 29.33467102 C-27.55105957 28.94924133 -26.96961182 28.56381165 -26.37054443 28.16670227 C-22.34421211 25.6148254 -18.71065969 24.25083275 -14.13250732 23.14717102 C-14.19438232 22.01279602 -14.25625732 20.87842102 -14.32000732 19.70967102 C-14.29729661 13.30524942 -12.74643483 8.03664713 -8.57000732 3.14717102 C-5.43979229 0.57878946 -3.94850821 0.02237087 0 0 Z " fill="#2E3341" transform="translate(203.13250732421875,-0.1471710205078125)"/>
<path d="M0 0 C3.25856437 -0.06396795 6.51688374 -0.1081176 9.77581787 -0.14825439 C10.75169357 -0.17174454 11.72756927 -0.19523468 12.73301697 -0.21943665 C19.91628135 -0.27686947 25.22206859 0.89708697 31.38128662 4.81658936 C36.99428186 10.4295846 38.74316115 16.35876667 38.79241943 24.1293335 C38.80202698 25.35483414 38.81163452 26.58033478 38.8215332 27.8429718 C38.82638404 29.17922783 38.83066217 30.51548604 38.83441162 31.85174561 C38.83865269 32.86822583 38.83865269 32.86822583 38.84297943 33.90524101 C38.85795604 37.49703229 38.86719293 41.08878362 38.871521 44.68060303 C38.87697877 48.36318348 38.90095335 52.04538915 38.92949295 55.72785282 C38.94827163 58.58232121 38.95333311 61.43670245 38.95485687 64.29122734 C38.95929736 66.30005576 38.97787525 68.30883724 38.99682617 70.31758118 C38.96261499 84.53927174 35.50689152 96.50657305 25.78363037 107.14471436 C16.99832155 114.98930953 7.1654997 118.37048042 -4.41558838 118.40252686 C-5.26743713 118.40918365 -6.11928589 118.41584045 -6.99694824 118.42269897 C-8.79207212 118.4327784 -10.58723311 118.43751746 -12.38238525 118.43719482 C-15.09722254 118.44155484 -17.81041438 118.47788716 -20.52496338 118.51580811 C-34.57152821 118.60808587 -45.42973701 116.5495245 -56.36871338 107.06658936 C-67.76546424 94.92752139 -69.73073789 82.43545902 -69.48590088 66.25018311 C-69.46984251 64.82489926 -69.45415305 63.39961121 -69.43881226 61.97431946 C-69.40401423 59.00142329 -69.36072084 56.02879156 -69.31207275 53.05609131 C-69.25128759 49.2648076 -69.21807757 45.47383417 -69.19201469 41.68217373 C-69.16766541 38.74353409 -69.12543763 35.8053451 -69.0782814 32.86699104 C-69.05855833 31.46976107 -69.04499078 30.07242893 -69.03796005 28.67507744 C-68.98429773 19.84675882 -68.85255648 12.60206981 -62.33355713 6.00799561 C-61.66453369 5.55295654 -60.99551025 5.09791748 -60.30621338 4.62908936 C-59.29881104 3.91946045 -59.29881104 3.91946045 -58.27105713 3.19549561 C-55.09595083 1.31129495 -52.43063997 0.93064227 -48.81915283 0.86126709 C-47.89580643 0.84132187 -46.97246002 0.82137665 -46.02113342 0.80082703 C-44.51675972 0.77575829 -44.51675972 0.77575829 -42.98199463 0.75018311 C-41.93335739 0.72940201 -40.88472015 0.70862091 -39.80430603 0.68721008 C-37.56906259 0.64388424 -35.33377375 0.60285009 -33.09844971 0.56390381 C-29.76719031 0.50559427 -26.43613885 0.44009553 -23.1050415 0.37322998 C-17.62723221 0.26664552 -12.14940564 0.18416365 -6.67102051 0.11364746 C-4.44725012 0.08195858 -2.22356179 0.04395314 0 0 Z " fill="#D9DDDE" transform="translate(431.36871337890625,393.93341064453125)"/>
<path d="M0 0 C0.029729 1.07314453 0.029729 1.07314453 0.06005859 2.16796875 C0.15599327 5.4456486 0.26539298 8.72275001 0.375 12 C0.4059375 13.12535156 0.436875 14.25070312 0.46875 15.41015625 C0.96333126 29.50572229 4.60547218 41.82638081 14.9296875 51.87890625 C20.9348033 56.97115646 27.59333724 59.51584881 35 62 C35 62.33 35 62.66 35 63 C-15.82 63 -66.64 63 -119 63 C-112.98619401 44.95858203 -99.59767117 33.06762069 -82.92311478 24.69089413 C-75.34557783 21.03231648 -67.36697029 18.80147689 -59.296875 16.50390625 C-57.63983765 16.0217619 -55.98312527 15.53849942 -54.32672119 15.05418396 C-50.01727889 13.79770968 -45.70325814 12.55773965 -41.38812256 11.32098389 C-37.84806613 10.30318593 -34.31161715 9.27317537 -30.77524948 8.24264622 C-26.5545111 7.01301936 -22.3321474 5.78902713 -18.109375 4.56640625 C-17.30545067 4.33340883 -16.50152634 4.10041142 -15.67324066 3.86035347 C-13.41291198 3.20665028 -11.15150744 2.55683282 -8.88964844 1.90844727 C-8.21752823 1.71372833 -7.54540802 1.5190094 -6.85292053 1.31838989 C-2.23030483 0 -2.23030483 0 0 0 Z " fill="#4590EB" transform="translate(213,257)"/>
<path d="M0 0 C5.20989245 4.74454283 9.55051261 10.20139086 10.3984375 17.3671875 C10.33235758 27.2571486 9.48055527 34.05103679 2.6796875 41.4609375 C-4.18612018 47.75193338 -11.47250608 48.42909745 -20.453125 48.3359375 C-27.48989298 47.66945948 -32.00535728 44.29526271 -36.875 39.375 C-41.76225135 33.32844717 -43.40667719 26.37370283 -42.875 18.6875 C-41.86402142 9.66528205 -35.78117734 3.47895979 -29 -2 C-19.77730526 -6.90356567 -8.64606737 -5.59828852 0 0 Z " fill="#B2B8B9" transform="translate(203,389)"/>
<path d="M0 0 C0.69738281 0.05220703 1.39476562 0.10441406 2.11328125 0.15820312 C3.82596203 0.28724072 5.53805066 0.42409614 7.25 0.5625 C7.26458252 1.62984375 7.27916504 2.6971875 7.29418945 3.796875 C7.35309768 7.83787049 7.43030413 11.8783611 7.51245117 15.91894531 C7.54527312 17.6525846 7.57343079 19.38631984 7.59643555 21.12011719 C7.80110244 36.15224713 9.39015155 50.22422372 14.25 64.5625 C3.66521144 64.38000365 -6.04236319 59.52279157 -13.75 52.375 C-21.95842786 43.40228649 -26.3214108 31.89039246 -26.00390625 19.76171875 C-25.32249932 13.85968645 -22.9568933 8.7693933 -18.75 4.5625 C-12.355105 0.13986234 -7.6117976 -0.62592287 0 0 Z " fill="#F8C0A3" transform="translate(163.75,138.4375)"/>
<path d="M0 0 C3.05377908 -0.0693827 6.10596844 -0.12010728 9.16015625 -0.16015625 C10.02080688 -0.1816272 10.88145752 -0.20309814 11.76818848 -0.22521973 C17.65710305 -0.28313421 21.74862456 0.30127871 26.40234375 4.21484375 C31.51963909 9.93270187 33.33499062 15.82407146 33.2109375 23.37890625 C32.23938529 35.45134209 27.2666422 45.79750391 18.46484375 54.109375 C10.76024072 60.01908636 2.67317344 63.37543722 -7 64 C-6.78065796 63.19163696 -6.78065796 63.19163696 -6.55688477 62.36694336 C-5.88782112 59.89159364 -5.22512374 57.41458103 -4.5625 54.9375 C-4.33240234 54.08994141 -4.10230469 53.24238281 -3.86523438 52.36914062 C-3.53168945 51.11713867 -3.53168945 51.11713867 -3.19140625 49.83984375 C-2.98717041 49.08050537 -2.78293457 48.32116699 -2.57250977 47.53881836 C-1.18102066 41.36820205 -0.81590558 35.2984652 -0.68359375 29.00390625 C-0.66281265 28.17036118 -0.64203156 27.3368161 -0.62062073 26.47801208 C-0.55572144 23.83958439 -0.49652022 21.20106509 -0.4375 18.5625 C-0.39425794 16.76366276 -0.35064192 14.96483446 -0.30664062 13.16601562 C-0.20010201 8.7774354 -0.09867025 4.3887639 0 0 Z " fill="#F8C0A3" transform="translate(341,139)"/>
<path d="M0 0 C0.01981934 0.71542969 0.03963867 1.43085938 0.06005859 2.16796875 C0.15599327 5.4456486 0.26539298 8.72275001 0.375 12 C0.4059375 13.12535156 0.436875 14.25070312 0.46875 15.41015625 C0.96333126 29.50572229 4.60547218 41.82638081 14.9296875 51.87890625 C20.9348033 56.97115646 27.59333724 59.51584881 35 62 C35 62.33 35 62.66 35 63 C29.41340908 63.17350846 23.82839738 63.30028255 18.23974609 63.38452148 C16.34037955 63.41964698 14.44120126 63.46736031 12.54248047 63.52807617 C9.80649363 63.61335182 7.07301422 63.65276453 4.3359375 63.68359375 C3.49195404 63.71972275 2.64797058 63.75585175 1.77841187 63.79307556 C-1.74017264 63.79539989 -4.05814365 63.7662822 -6.85098267 61.49406433 C-18.24701635 48.42573648 -22.32276006 30.97437505 -21.19628906 14.02807617 C-20.86615944 10.61714736 -20.49363469 8.11883306 -19 5 C-16.30858964 3.41966295 -13.52523788 2.75547321 -10.5 2.0625 C-9.71496094 1.85560547 -8.92992187 1.64871094 -8.12109375 1.43554688 C-2.56013808 0 -2.56013808 0 0 0 Z " fill="#3469D4" transform="translate(213,257)"/>
<path d="M0 0 C2.60453175 0.64438933 5.2086291 1.2904504 7.8125 1.9375 C8.55048828 2.11990234 9.28847656 2.30230469 10.04882812 2.49023438 C13.07060984 3.2422615 16.04456718 4.01485573 19 5 C23.41334686 22.45636302 20.561387 38.62118796 11.87890625 54.1328125 C10.94884766 55.55207031 10.94884766 55.55207031 10 57 C9.34032227 58.03705078 8.68064453 59.07410156 8.00097656 60.14257812 C6.33662745 62.10343628 5.40689615 62.89867711 2.89122009 63.52511597 C0.27613086 63.69470447 -2.27540256 63.67460325 -4.89453125 63.5859375 C-5.84188644 63.57744781 -6.78924164 63.56895813 -7.76530457 63.56021118 C-10.78220798 63.52670403 -13.79640876 63.45142976 -16.8125 63.375 C-18.86128944 63.34489692 -20.91012091 63.31752172 -22.95898438 63.29296875 C-27.97369281 63.22692133 -32.9863887 63.12341781 -38 63 C-38 62.67 -38 62.34 -38 62 C-36.7625 61.79375 -35.525 61.5875 -34.25 61.375 C-22.6974625 58.76930148 -13.75455787 52.86730552 -7.25 43.0625 C-2.73222726 35.37931412 -1.00448114 27.83847724 -0.68359375 18.9453125 C-0.62075195 17.28242188 -0.62075195 17.28242188 -0.55664062 15.5859375 C-0.51732422 14.44382812 -0.47800781 13.30171875 -0.4375 12.125 C-0.37272461 10.37703125 -0.37272461 10.37703125 -0.30664062 8.59375 C-0.20098371 5.72927375 -0.09888201 2.86471679 0 0 Z " fill="#3469D3" transform="translate(299,257)"/>
<path d="M0 0 C2.9375 1.6875 2.9375 1.6875 5 5 C5.82499487 8.2398236 6.47297224 11.493123 7.1171875 14.7734375 C8.19652941 18.71828891 9.87263207 21.13258123 12.59765625 24.12109375 C16.1432172 28.87155285 16.38930309 34.32706777 16.4375 40.0625 C16.47037109 40.75666016 16.50324219 41.45082031 16.53710938 42.16601562 C16.57768947 46.05063735 16.13688219 47.82176799 13.75 50.9296875 C9.86875264 53.85164929 6.79894377 54.43933992 2 54 C-2.13708444 51.96906764 -4.3007873 50.24057905 -6 46 C-6.31795908 44.04876394 -6.58513263 42.08885443 -6.8125 40.125 C-7.69073413 34.36768736 -9.10469844 32.18032363 -13 28 C-16.45123111 21.21654574 -16.91103549 14.54298205 -16 7 C-13.047157 -0.56925952 -7.31448368 -0.93450028 0 0 Z " fill="#D3D8D9" transform="translate(432,320)"/>
<path d="M0 0 C2.87029869 1.79393668 4.49131638 2.98263276 6 6 C6.0260504 7.47908398 6.04593273 8.9582794 6.0625 10.4375 C6.56184763 16.38662432 9.37029423 19.85001187 13.08984375 24.359375 C16.45121026 29.00617206 17.29058799 33.4018986 17.3125 39.0625 C17.32925781 40.06410156 17.34601563 41.06570313 17.36328125 42.09765625 C16.81412814 46.48497622 15.14057887 49.10603278 11.6875 51.8125 C8.39495543 53.26734528 6.56576005 53.58216491 3 53 C0.07847298 51.1655528 -2.4326609 49.13467819 -4 46 C-4.05171049 44.66701841 -4.09166081 43.33356754 -4.125 42 C-4.63689284 36.68484598 -7.14566668 33.58081826 -10.27734375 29.39453125 C-15.14570759 22.62739512 -16.15801191 15.230967 -15 7 C-11.62714076 0.08662478 -7.24059859 -1.06703558 0 0 Z " fill="#D9DFE1" transform="translate(399,331)"/>
</svg>
