<?xml version="1.0" encoding="UTF-8"?>
<svg version="1.1" xmlns="http://www.w3.org/2000/svg" width="512" height="512">
<path d="M0 0 C1.25267101 -0.00583219 2.50534202 -0.01166439 3.79597276 -0.01767331 C5.19898173 -0.01403955 6.60199022 -0.01021514 8.00499821 -0.00622082 C9.48539154 -0.00923865 10.96578331 -0.01312627 12.4461723 -0.01781338 C16.52905338 -0.02814971 20.61184722 -0.02589733 24.69473565 -0.02163279 C29.09221841 -0.01917573 33.4896796 -0.02816698 37.88715458 -0.03567028 C46.50796387 -0.0484478 55.12874205 -0.05020718 63.74955922 -0.04787002 C70.75368555 -0.04609011 77.75780241 -0.04782945 84.7619276 -0.05209446 C85.75714514 -0.05268965 86.75236268 -0.05328484 87.77773832 -0.05389806 C89.79924106 -0.05510976 91.8207438 -0.05632389 93.84224654 -0.05754044 C112.81840138 -0.06842773 131.79453847 -0.06624786 150.77069432 -0.06015559 C168.1473527 -0.0549853 185.52395504 -0.06624275 202.90060233 -0.08525381 C220.72437105 -0.10460522 238.54811322 -0.11289297 256.37189251 -0.10913056 C266.38603118 -0.10721442 276.40012215 -0.10974612 286.41425228 -0.1238451 C294.93923539 -0.13572557 303.46414144 -0.13720143 311.98912554 -0.12505493 C316.34185896 -0.11914271 320.69445118 -0.11813104 325.04717541 -0.13005733 C329.02760324 -0.14083715 333.00777065 -0.13790806 336.98818589 -0.12379565 C338.43231513 -0.12112674 339.87646427 -0.12358326 341.3205741 -0.13153151 C343.27551245 -0.14154901 345.23052352 -0.13147776 347.18545532 -0.12025452 C348.2737888 -0.12030953 349.36212229 -0.12036455 350.48343557 -0.12042123 C353.15564823 0.25447559 353.15564823 0.25447559 355.00749928 1.53285533 C357.0891747 4.65427488 356.51565811 8.45212898 356.44861698 12.07869434 C356.44437214 12.94009525 356.4401273 13.80149616 356.43575382 14.68900013 C356.41896071 17.4403099 356.38130779 20.19088722 356.34314823 22.94197559 C356.32810219 24.80719939 356.31441364 26.67243467 356.30213261 28.53767872 C356.26905516 33.11022657 356.21726883 37.6822269 356.15564823 42.25447559 C356.86648563 42.36460987 357.57732304 42.47474415 358.30970097 42.58821583 C361.42256865 43.31696387 363.85249739 44.44719295 366.69080448 45.91463184 C367.74179325 46.45700489 368.79278202 46.99937794 369.87561893 47.55818653 C370.9786536 48.13858692 372.08168827 48.71898731 373.21814823 49.31697559 C374.34760868 49.90897755 375.47706913 50.5009795 376.64075565 51.11092091 C384.15344877 55.09203402 391.31578965 59.18752514 398.15564823 64.25447559 C399.14049198 64.96990528 400.12533573 65.68533497 401.14002323 66.42244434 C452.58396586 104.3525594 486.61250543 156.1921615 500.34314823 218.81697559 C500.49823856 219.51153858 500.6533289 220.20610157 500.81311893 220.92171192 C503.99304287 236.17668217 504.53016408 251.41247814 504.46814823 266.94197559 C504.46599308 267.91447254 504.46383793 268.88696949 504.46161747 269.88893604 C504.41180382 283.89348228 504.03735134 297.50635034 501.15564823 311.25447559 C500.86560917 312.7382671 500.86560917 312.7382671 500.56971073 314.25203419 C493.06649799 352.21389061 477.27359643 387.90826605 453.15564823 418.25447559 C452.45182011 419.15037403 451.74799198 420.04627247 451.02283573 420.96931934 C414.54714879 466.53124372 364.44097294 495.97795176 307.59314823 508.44197559 C306.89858524 508.59706593 306.20402225 508.75215626 305.4884119 508.9119463 C290.23344165 512.09187023 274.99764569 512.62899144 259.46814823 512.56697559 C258.49565128 512.56482044 257.52315434 512.56266529 256.52118778 512.56044483 C242.51664154 512.51063118 228.90377348 512.1361787 215.15564823 509.25447559 C214.1664539 509.06111622 213.17725956 508.86775684 212.15808964 508.66853809 C174.19623321 501.16532536 138.50185778 485.37242379 108.15564823 461.25447559 C107.25974979 460.55064747 106.36385136 459.84681934 105.44080448 459.12166309 C79.63221966 438.45998399 57.21183404 412.84766839 42.15564823 383.25447559 C42.15564823 382.59447559 42.15564823 381.93447559 42.15564823 381.25447559 C40.84894169 381.27542286 39.54223515 381.29637012 38.19593143 381.31795216 C33.34122549 381.39043113 28.48656725 381.43630434 23.63147831 381.47420216 C21.53146156 381.49429956 19.43150065 381.52158226 17.33167362 381.55623341 C14.31061865 381.6048333 11.29030447 381.62746321 8.26892948 381.64510059 C6.86396969 381.67606831 6.86396969 381.67606831 5.43062687 381.70766163 C1.14018531 381.70913374 -1.19451469 381.65658586 -4.91393185 379.35506153 C-8.08980249 375.89923871 -7.97011001 373.80762341 -7.97298622 369.18868732 C-7.97621067 367.88663208 -7.97943511 366.58457683 -7.98275727 365.24306536 C-7.9812859 363.78434426 -7.97971816 362.32562325 -7.97806454 360.86690235 C-7.97993115 359.32805052 -7.98223124 357.78919916 -7.98492986 356.25034857 C-7.99107276 352.00593608 -7.99091136 347.7615432 -7.98973548 343.51712728 C-7.98953211 338.94584455 -7.99504416 334.37456823 -7.99979305 329.80328846 C-8.00811351 320.84192234 -8.01084851 311.8805628 -8.01140543 302.91919315 C-8.01187988 295.63903101 -8.01393105 288.35887105 -8.01710606 281.0787096 C-8.025916 260.45975803 -8.03052484 239.84081167 -8.02977558 219.2218582 C-8.02973563 218.10936511 -8.02969567 216.99687201 -8.0296545 215.850667 C-8.02961362 214.73682331 -8.02957274 213.62297963 -8.02953062 212.4753831 C-8.02912393 194.41261078 -8.03869842 176.34985928 -8.05279287 158.28709298 C-8.06713491 139.76159523 -8.07406427 121.23610764 -8.07319909 102.71060419 C-8.0728664 92.30135532 -8.0756452 81.89212829 -8.08637714 71.48288441 C-8.09545357 62.62228651 -8.09768102 53.76172035 -8.09086772 44.90111983 C-8.08758814 40.37639056 -8.08759726 35.85172229 -8.09622097 31.32699871 C-8.10402379 27.19062427 -8.10271902 23.0543598 -8.09393684 18.91798824 C-8.09238802 17.41600305 -8.09426928 15.91400991 -8.09979691 14.41203409 C-8.1067791 12.38145485 -8.10041264 10.35084245 -8.09324074 8.32026386 C-8.09345811 7.18902198 -8.09367547 6.0577801 -8.09389943 4.89225817 C-7.59276333 -0.40487856 -4.54431384 0.00361975 0 0 Z " fill="#EDF5FE" transform="translate(7.844351768493652,-0.25447559356689453)"/>
<path d="M0 0 C1.25267101 -0.00583219 2.50534202 -0.01166439 3.79597276 -0.01767331 C5.19898173 -0.01403955 6.60199022 -0.01021514 8.00499821 -0.00622082 C9.48539154 -0.00923865 10.96578331 -0.01312627 12.4461723 -0.01781338 C16.52905338 -0.02814971 20.61184722 -0.02589733 24.69473565 -0.02163279 C29.09221841 -0.01917573 33.4896796 -0.02816698 37.88715458 -0.03567028 C46.50796387 -0.0484478 55.12874205 -0.05020718 63.74955922 -0.04787002 C70.75368555 -0.04609011 77.75780241 -0.04782945 84.7619276 -0.05209446 C85.75714514 -0.05268965 86.75236268 -0.05328484 87.77773832 -0.05389806 C89.79924106 -0.05510976 91.8207438 -0.05632389 93.84224654 -0.05754044 C112.81840138 -0.06842773 131.79453847 -0.06624786 150.77069432 -0.06015559 C168.1473527 -0.0549853 185.52395504 -0.06624275 202.90060233 -0.08525381 C220.72437105 -0.10460522 238.54811322 -0.11289297 256.37189251 -0.10913056 C266.38603118 -0.10721442 276.40012215 -0.10974612 286.41425228 -0.1238451 C294.93923539 -0.13572557 303.46414144 -0.13720143 311.98912554 -0.12505493 C316.34185896 -0.11914271 320.69445118 -0.11813104 325.04717541 -0.13005733 C329.02760324 -0.14083715 333.00777065 -0.13790806 336.98818589 -0.12379565 C338.43231513 -0.12112674 339.87646427 -0.12358326 341.3205741 -0.13153151 C343.27551245 -0.14154901 345.23052352 -0.13147776 347.18545532 -0.12025452 C348.2737888 -0.12030953 349.36212229 -0.12036455 350.48343557 -0.12042123 C353.15564823 0.25447559 353.15564823 0.25447559 355.00749928 1.53285533 C357.0891747 4.65427488 356.51565811 8.45212898 356.44861698 12.07869434 C356.44437214 12.94009525 356.4401273 13.80149616 356.43575382 14.68900013 C356.41896071 17.4403099 356.38130779 20.19088722 356.34314823 22.94197559 C356.32810219 24.80719939 356.31441364 26.67243467 356.30213261 28.53767872 C356.26905516 33.11022657 356.21726883 37.6822269 356.15564823 42.25447559 C356.86648563 42.36460987 357.57732304 42.47474415 358.30970097 42.58821583 C361.42256865 43.31696387 363.85249739 44.44719295 366.69080448 45.91463184 C367.74179325 46.45700489 368.79278202 46.99937794 369.87561893 47.55818653 C370.9786536 48.13858692 372.08168827 48.71898731 373.21814823 49.31697559 C374.34760868 49.90897755 375.47706913 50.5009795 376.64075565 51.11092091 C384.15344877 55.09203402 391.31578965 59.18752514 398.15564823 64.25447559 C399.14049198 64.96990528 400.12533573 65.68533497 401.14002323 66.42244434 C452.58396586 104.3525594 486.61250543 156.1921615 500.34314823 218.81697559 C500.49823856 219.51153858 500.6533289 220.20610157 500.81311893 220.92171192 C503.99304287 236.17668217 504.53016408 251.41247814 504.46814823 266.94197559 C504.46599308 267.91447254 504.46383793 268.88696949 504.46161747 269.88893604 C504.41180382 283.89348228 504.03735134 297.50635034 501.15564823 311.25447559 C500.86560917 312.7382671 500.86560917 312.7382671 500.56971073 314.25203419 C493.06125243 352.24043008 477.24856719 387.86701024 453.15564823 418.25447559 C452.33904039 419.31161157 451.52263944 420.36890739 450.70642948 421.42635059 C446.10187075 427.2691723 446.10187075 427.2691723 444.15564823 429.25447559 C441.15564823 429.25447559 441.15564823 429.25447559 439.35225773 427.81184864 C438.68385365 427.13678272 438.01544956 426.4617168 437.32679081 425.76619434 C436.56622883 425.00540577 435.80566685 424.2446172 435.02205753 423.46077442 C434.20633778 422.62957081 433.39061802 421.7983672 432.55017948 420.94197559 C431.71097462 420.09852589 430.87176975 419.25507618 430.00713444 418.38606739 C427.32037443 415.68247401 424.64421388 412.96865091 421.96814823 410.25447559 C420.15177806 408.42306469 418.33472933 406.59232651 416.51697636 404.76228809 C412.05528843 400.26746901 407.60226646 395.76420059 403.15564823 391.25447559 C404.13431161 390.10821237 405.11359411 388.96247771 406.09314823 387.81697559 C406.63842167 387.17888966 407.18369511 386.54080372 407.74549198 385.88338184 C408.52360518 384.98456411 409.31501351 384.09511031 410.15564823 383.25447559 C410.16480108 379.60249092 410.02193314 377.35990057 407.74060917 374.44881153 C405.88686549 372.61133768 403.9866992 370.85763713 402.03064823 369.12947559 C397.09853377 364.76535896 397.09853377 364.76535896 395.15564823 362.25447559 C395.04627323 359.78963184 395.04627323 359.78963184 396.15564823 357.25447559 C396.58619511 356.10076466 397.01674198 354.94705372 397.46033573 353.75838184 C397.71283085 353.12577442 397.96532597 352.493167 398.22547245 351.84138966 C407.99400377 327.28084942 408.98588392 298.28968522 398.71814823 273.59822559 C388.85583112 252.49286697 376.00632487 237.88672437 356.15564823 225.25447559 C356.15564823 169.81447559 356.15564823 114.37447559 356.15564823 57.25447559 C236.03564823 57.25447559 115.91564823 57.25447559 -7.84435177 57.25447559 C-7.84435177 0.00624838 -7.84435177 0.00624838 0 0 Z " fill="#F14976" transform="translate(7.844351768493652,-0.25447559356689453)"/>
<path d="M0 0 C1.40863159 -0.01142612 2.81722318 -0.0317264 4.22558594 -0.06152344 C14.74411512 -0.28321386 23.66268958 1.03895226 33.69946289 4.29516602 C34.481521 4.5467749 35.2635791 4.79838379 36.06933594 5.05761719 C49.92575022 9.81861133 61.74820295 17.63541169 72.69946289 27.29516602 C73.32208008 27.83399414 73.94469727 28.37282227 74.58618164 28.92797852 C87.9974615 41.37014491 97.82626121 59.57814446 101.69946289 77.29516602 C101.87461426 78.08391113 102.04976562 78.87265625 102.23022461 79.68530273 C106.84284053 102.27107328 104.07867295 124.38047037 94.77368164 145.22094727 C93.64442355 148.45267859 93.54481746 149.2193743 94.69946289 152.29516602 C95.97460515 153.88507975 95.97460515 153.88507975 97.60571289 155.28344727 C98.47389648 156.09652344 98.47389648 156.09652344 99.35961914 156.92602539 C100.58036257 158.04180043 101.80690352 159.15126735 103.03930664 160.25415039 C106.10859512 163.14912516 107.55975429 164.83758382 108.82055664 168.96704102 C108.69946289 172.29516602 108.69946289 172.29516602 107.26586914 174.51000977 C106.27393555 175.36272461 106.27393555 175.36272461 105.26196289 176.23266602 C104.60325195 176.81918945 103.94454102 177.40571289 103.26586914 178.01000977 C102.49049805 178.64616211 102.49049805 178.64616211 101.69946289 179.29516602 C106.00573545 184.44346345 110.5225822 189.25268674 115.28540039 193.97875977 C115.98718414 194.67912857 116.6889679 195.37949738 117.41201782 196.10108948 C119.63047425 198.31399628 121.85240104 200.52338018 124.07446289 202.73266602 C125.58901755 204.24219916 127.10334274 205.75196258 128.61743164 207.26196289 C132.30879388 210.94236304 136.00300358 214.61988558 139.69946289 218.29516602 C138.4689386 221.77389948 137.21732027 224.15958103 134.61743164 226.77563477 C133.71347656 227.68539062 133.71347656 227.68539062 132.79125977 228.61352539 C131.84863281 229.53875 131.84863281 229.53875 130.88696289 230.48266602 C130.27014648 231.11108398 129.65333008 231.73950195 129.01782227 232.38696289 C128.41131836 232.98959961 127.80481445 233.59223633 127.17993164 234.21313477 C126.63232178 234.75736084 126.08471191 235.30158691 125.52050781 235.86230469 C123.38015703 237.54640694 121.23274727 238.32859412 118.69946289 239.29516602 C118.24480652 238.82940659 117.79015015 238.36364716 117.32171631 237.8837738 C112.59990051 233.05159561 107.86077593 228.23690635 103.11108398 223.43212891 C101.33929939 221.63515383 99.57202208 219.83372328 97.80932617 218.02783203 C95.27914068 215.43720085 92.73333404 212.86287111 90.18383789 210.29125977 C89.3951532 209.47676865 88.60646851 208.66227753 87.79388428 207.82310486 C87.05341858 207.08226151 86.31295288 206.34141815 85.55004883 205.578125 C84.57742096 204.58884254 84.57742096 204.58884254 83.58514404 203.57957458 C81.79014076 202.07403238 81.79014076 202.07403238 79.60723877 202.42982483 C77.40649145 203.27963388 77.40649145 203.27963388 75.32446289 205.85766602 C72.69946289 208.29516602 72.69946289 208.29516602 70.00805664 208.92016602 C64.89197371 207.95372768 62.51230647 204.5142696 59.13696289 200.73266602 C57.85867803 199.30144578 56.56621153 197.88273068 55.25805664 196.47875977 C54.41198853 195.52827759 54.41198853 195.52827759 53.54882812 194.55859375 C51.72542185 193.02625942 51.72542185 193.02625942 49.19555664 193.51464844 C45.16980628 194.77348294 41.27122112 196.34319107 37.37329102 197.94750977 C25.84280749 202.46882252 14.19985319 203.83215608 1.88696289 203.73266602 C0.57614746 203.72581787 -0.73466797 203.71896973 -2.08520508 203.71191406 C-29.52380328 203.25862204 -52.64128204 191.57144971 -72.01928711 172.63891602 C-93.58879494 150.00424731 -100.105527 122.57496969 -99.54206848 92.18414307 C-99.31689379 84.1139105 -97.95905037 76.88718257 -95.30053711 69.29516602 C-94.93831055 68.24458008 -94.57608398 67.19399414 -94.20288086 66.11157227 C-89.36514194 53.50065284 -82.30008718 42.31775553 -73.30053711 32.29516602 C-72.38208008 31.25295898 -72.38208008 31.25295898 -71.44506836 30.18969727 C-52.8083938 10.28143723 -26.871463 0.15087678 0 0 Z " fill="#445EA0" transform="translate(310.300537109375,210.704833984375)"/>
<path d="M0 0 C24.2434507 -0.18693484 48.48679329 -0.3279815 72.7308197 -0.41449738 C83.98794658 -0.45573721 95.2446255 -0.51195516 106.50146484 -0.60351562 C116.31368943 -0.68328785 126.12558958 -0.73487397 135.93812943 -0.75270796 C141.13333553 -0.76313199 146.32761354 -0.78760457 151.52252197 -0.84584045 C156.41471568 -0.90023731 161.3056012 -0.91687371 166.19806862 -0.90486145 C167.99116952 -0.90705815 169.7843152 -0.92291715 171.57715416 -0.9536438 C185.13643046 -1.17458549 185.13643046 -1.17458549 189.7726593 1.74757385 C191.7614692 3.72853484 193.35461216 5.73455036 195 8 C213.8433606 24.65324005 236.67720796 32.15284622 261.5 32.25 C263.42972656 32.2809375 263.42972656 32.2809375 265.3984375 32.3125 C277.37505675 32.36069565 288.47668963 30.43772237 299.5625 25.875 C308.43373315 22.31260471 308.43373315 22.31260471 312 22 C313.84936523 23.26342773 313.84936523 23.26342773 315.55859375 25.18359375 C316.19216797 25.86357422 316.82574219 26.54355469 317.47851562 27.24414062 C318.78083116 28.7022666 320.08291585 30.1605988 321.38476562 31.61914062 C325.14258746 35.78626635 325.14258746 35.78626635 330.27734375 37.6640625 C333.28025689 36.93164466 334.22804172 36.31682767 336.125 33.9375 C337.5078125 32.21484375 337.5078125 32.21484375 339 31 C342.62102257 31.40009239 344.34012409 32.9737555 346.85058594 35.51000977 C347.59105164 36.25070206 348.33151733 36.99139435 349.09442139 37.75453186 C349.88310608 38.55870041 350.67179077 39.36286896 351.484375 40.19140625 C352.29996887 41.01124496 353.11556274 41.83108368 353.95587158 42.67576599 C356.56103106 45.29772762 359.15557079 47.92992448 361.75 50.5625 C363.51363369 52.34117845 365.2779484 54.11918192 367.04296875 55.89648438 C371.36991403 60.2565194 375.68818398 64.62500527 380 69 C377.69173146 72.00236328 375.49241773 74.63482146 372.48828125 76.9453125 C371.82248047 77.45900391 371.15667969 77.97269531 370.47070312 78.50195312 C369.75849609 79.03755859 369.04628906 79.57316406 368.3125 80.125 C367.55775391 80.69412109 366.80300781 81.26324219 366.02539062 81.84960938 C335.8178201 104.37345872 302.16834536 119.13417282 265.4375 127.1875 C264.74293701 127.34259033 264.04837402 127.49768066 263.33276367 127.6574707 C248.07779342 130.83739464 232.84199746 131.37451585 217.3125 131.3125 C216.34000305 131.31034485 215.3675061 131.3081897 214.36553955 131.30596924 C200.36099331 131.25615559 186.74812525 130.88170311 173 128 C172.01080566 127.80664062 171.02161133 127.61328125 170.00244141 127.4140625 C132.04058498 119.91084976 96.34620955 104.1179482 66 80 C65.10410156 79.29617188 64.20820312 78.59234375 63.28515625 77.8671875 C37.47657143 57.2055084 15.05618581 31.5931928 0 2 C0 1.34 0 0.68 0 0 Z " fill="#F14976" transform="translate(50,381)"/>
<path d="M0 0 C1.25267101 -0.00583219 2.50534202 -0.01166439 3.79597276 -0.01767331 C5.19898173 -0.01403955 6.60199022 -0.01021514 8.00499821 -0.00622082 C9.48539154 -0.00923865 10.96578331 -0.01312627 12.4461723 -0.01781338 C16.52905338 -0.02814971 20.61184722 -0.02589733 24.69473565 -0.02163279 C29.09221841 -0.01917573 33.4896796 -0.02816698 37.88715458 -0.03567028 C46.50796387 -0.0484478 55.12874205 -0.05020718 63.74955922 -0.04787002 C70.75368555 -0.04609011 77.75780241 -0.04782945 84.7619276 -0.05209446 C85.75714514 -0.05268965 86.75236268 -0.05328484 87.77773832 -0.05389806 C89.79924106 -0.05510976 91.8207438 -0.05632389 93.84224654 -0.05754044 C112.81840138 -0.06842773 131.79453847 -0.06624786 150.77069432 -0.06015559 C168.1473527 -0.0549853 185.52395504 -0.06624275 202.90060233 -0.08525381 C220.72437105 -0.10460522 238.54811322 -0.11289297 256.37189251 -0.10913056 C266.38603118 -0.10721442 276.40012215 -0.10974612 286.41425228 -0.1238451 C294.93923539 -0.13572557 303.46414144 -0.13720143 311.98912554 -0.12505493 C316.34185896 -0.11914271 320.69445118 -0.11813104 325.04717541 -0.13005733 C329.02760324 -0.14083715 333.00777065 -0.13790806 336.98818589 -0.12379565 C338.43231513 -0.12112674 339.87646427 -0.12358326 341.3205741 -0.13153151 C343.27551245 -0.14154901 345.23052352 -0.13147776 347.18545532 -0.12025452 C348.2737888 -0.12030953 349.36212229 -0.12036455 350.48343557 -0.12042123 C353.15564823 0.25447559 353.15564823 0.25447559 356.15564823 3.25447559 C356.15564823 21.07447559 356.15564823 38.89447559 356.15564823 57.25447559 C236.03564823 57.25447559 115.91564823 57.25447559 -7.84435177 57.25447559 C-7.84435177 0.00624838 -7.84435177 0.00624838 0 0 Z " fill="#445EA0" transform="translate(7.844351768493652,-0.25447559356689453)"/>
<path d="M0 0 C0.87914062 0.26554688 1.75828125 0.53109375 2.6640625 0.8046875 C18.95665099 6.37707118 32.23303917 20.26563318 40.12744141 35.15820312 C48.71355782 53.28177957 49.27796883 73.20984243 43 92 C42.72285156 92.89074219 42.44570313 93.78148437 42.16015625 94.69921875 C35.91858224 112.56105037 21.45438435 125.49567186 4.81640625 133.5390625 C-11.47695384 140.63757097 -30.62055586 141.69890237 -47.640625 136.328125 C-57.03066206 132.61578477 -65.40719188 127.65095215 -73 121 C-73.67546875 120.41863281 -74.3509375 119.83726562 -75.046875 119.23828125 C-87.74980285 107.49545841 -95.58698981 89.95929771 -96.3359375 72.73828125 C-96.69017053 51.50559223 -91.69343819 34.01667465 -77 18 C-56.66730884 -2.95235413 -27.37997701 -9.126659 0 0 Z " fill="#69CCFE" transform="translate(337,245)"/>
<path d="M0 0 C1.47647255 -0.00845947 1.47647255 -0.00845947 2.98277283 -0.01708984 C4.60832848 -0.01101715 4.60832848 -0.01101715 6.26672363 -0.00482178 C7.40497086 -0.00832642 8.54321808 -0.01183105 9.71595764 -0.01544189 C13.49400863 -0.0242742 17.27187372 -0.01840469 21.04992676 -0.01165771 C23.66544633 -0.01300393 26.28096566 -0.0149441 28.89648438 -0.01745605 C34.38433868 -0.02109725 39.8721392 -0.01629262 45.35998535 -0.0067749 C51.70955131 0.00410998 58.05898885 0.00058451 64.40855169 -0.01042771 C70.51038668 -0.02058774 76.6121646 -0.01952448 82.71400452 -0.01366425 C85.31364459 -0.0123262 87.91328792 -0.01398084 90.51292419 -0.01862335 C94.1405822 -0.02367937 97.76799056 -0.0159912 101.39562988 -0.00482178 C102.47933365 -0.00887024 103.56303741 -0.0129187 104.67958069 -0.01708984 C105.66389572 -0.0114502 106.64821075 -0.00581055 107.66235352 0 C108.94988903 0.00113108 108.94988903 0.00113108 110.26343536 0.002285 C112.33117676 0.25396729 112.33117676 0.25396729 114.33117676 2.25396729 C114.53493403 4.94829796 114.61436571 7.54027228 114.60583496 10.23614502 C114.61094589 11.06067169 114.61605682 11.88519836 114.62132263 12.73471069 C114.63525942 15.46906732 114.63425879 18.20317304 114.63195801 20.93756104 C114.63584276 22.83323766 114.64017696 24.7289134 114.64494324 26.62458801 C114.65241429 30.60174376 114.65210782 34.57881076 114.64685059 38.55596924 C114.64105542 43.6585625 114.6579838 48.76079284 114.68119526 53.86332607 C114.69591071 57.77948642 114.69680728 61.69555893 114.69368553 65.61174202 C114.69419987 67.49325339 114.69945859 69.37476954 114.70949745 71.2562542 C114.721802 73.88520923 114.71510641 76.51345182 114.70349121 79.14239502 C114.71113495 79.92327988 114.71877869 80.70416473 114.72665405 81.50871277 C114.67505987 86.77850432 114.67505987 86.77850432 113.1019392 88.95354748 C110.8075377 90.63851949 109.45829087 90.63110909 106.62475586 90.63491821 C105.65733963 90.64337769 104.6899234 90.65183716 103.69319153 90.66055298 C102.10343758 90.65144394 102.10343758 90.65144394 100.48156738 90.64215088 C99.36428757 90.64740784 98.24700775 90.65266479 97.09587097 90.65808105 C93.39291513 90.67131343 89.69038717 90.66253119 85.98742676 90.65240479 C83.42057207 90.65442458 80.85371795 90.65733522 78.28686523 90.66110229 C72.90330016 90.66553006 67.51989669 90.659365 62.13635254 90.64508057 C55.91112898 90.62875367 49.68620017 90.6340421 43.46098375 90.65055978 C37.47392226 90.6658101 31.48700507 90.66420112 25.49992371 90.65541458 C22.95134948 90.65340917 20.40276776 90.65588373 17.85420227 90.66285324 C14.29619235 90.67044723 10.73875339 90.65889161 7.18078613 90.64215088 C6.12095016 90.64822357 5.0611142 90.65429626 3.96916199 90.66055298 C3.00174576 90.65209351 2.03432953 90.64363403 1.03759766 90.63491821 C-0.22448391 90.6332216 -0.22448391 90.6332216 -1.51206207 90.63149071 C-4.19754537 90.1614188 -5.08190464 89.44808787 -6.66882324 87.25396729 C-6.95976265 84.47517269 -7.06833961 81.92134498 -7.0411377 79.14239502 C-7.04478836 78.31611603 -7.04843903 77.48983704 -7.05220032 76.63851929 C-7.0603129 73.90465811 -7.04669112 71.17138828 -7.03210449 68.43756104 C-7.03158602 66.54091899 -7.03210322 64.6442764 -7.03361511 62.74763489 C-7.03352536 58.77220643 -7.02308895 54.79698065 -7.00500488 50.82159424 C-6.98230218 45.71786472 -6.98177608 40.61443106 -6.98852253 35.51066494 C-6.9918586 31.59454199 -6.98523953 27.67848688 -6.9753933 23.76237679 C-6.9715359 21.88004982 -6.9703953 19.99771531 -6.97197914 18.11538506 C-6.97234866 15.48882448 -6.95976215 12.86264807 -6.94348145 10.23614502 C-6.94595886 9.45323593 -6.94843628 8.67032684 -6.95098877 7.86369324 C-6.89153203 1.87491657 -6.09185453 0.00535158 0 0 Z " fill="#69CDFE" transform="translate(43.6688232421875,93.74603271484375)"/>
<path d="M0 0 C1.29604094 0.00184359 2.59208187 0.00368717 3.92739677 0.00558662 C5.00801787 0.00302335 5.00801787 0.00302335 6.1104697 0.00040829 C8.53659536 -0.00289916 10.9624475 0.00813751 13.3885479 0.01904488 C15.12281093 0.01960872 16.85707445 0.01929296 18.5913372 0.01815987 C23.31011806 0.0175843 28.02879794 0.02937144 32.74755526 0.04330778 C37.67498995 0.05578132 42.60242676 0.05698297 47.5298748 0.0593586 C56.86547959 0.06558332 66.20103772 0.08200752 75.53662193 0.10205758 C86.16281994 0.12438576 96.78902014 0.13540224 107.41523576 0.14544845 C129.27859895 0.16637291 151.1419201 0.20156812 173.00524712 0.24609566 C172.79300405 1.27709766 172.58076097 2.30809967 172.3620863 3.37034416 C172.08409555 4.73586275 171.8062465 6.10141019 171.52851677 7.46698189 C171.38855042 8.14499289 171.24858407 8.82300388 171.10437632 9.52156067 C170.15277887 14.22001549 169.63000509 18.54120525 169.64196587 23.32422066 C169.64146736 23.98718147 169.64096886 24.65014229 169.64045525 25.33319283 C169.64274985 26.70393127 169.65219459 28.07467786 169.66906548 29.44531441 C169.69290201 31.50950883 169.68956035 33.57242075 169.68298149 35.63672066 C169.70726973 41.53828296 169.93444816 47.1777008 171.02241325 52.99286079 C171.20555989 53.97817158 171.38870653 54.96348236 171.57740307 55.97865105 C171.78918587 57.10103613 171.78918587 57.10103613 172.00524712 58.24609566 C149.37029927 58.3161128 126.73536922 58.36904801 104.10033512 58.40153217 C93.5909819 58.41701464 83.08169588 58.43813048 72.57238579 58.47241402 C63.41467235 58.50227418 54.25700757 58.52166061 45.0992468 58.52836114 C40.24827923 58.53227915 35.3974509 58.54151555 30.54652786 58.56328583 C25.98377364 58.58359759 21.42121646 58.58994026 16.85842133 58.5854187 C15.18099841 58.58624629 13.50356914 58.59224351 11.82618523 58.60371208 C9.54112005 58.61857346 7.25680502 58.61507303 4.97172356 58.60685921 C3.6913531 58.60962459 2.41098265 58.61238997 1.09181309 58.61523914 C-1.99475288 58.24609566 -1.99475288 58.24609566 -3.9067688 56.87100983 C-5.45499842 54.55871475 -5.36894383 52.84116949 -5.36706734 50.07202339 C-5.37329613 49.01760551 -5.37952492 47.96318764 -5.38594246 46.8768177 C-5.37673271 45.73926537 -5.36752296 44.60171303 -5.35803413 43.42968941 C-5.35853264 42.26228722 -5.35903114 41.09488503 -5.35954475 39.89210701 C-5.35720308 37.42325323 -5.34746917 34.95439713 -5.33093452 32.48559761 C-5.30732555 28.6952614 -5.31037517 24.90562739 -5.31701851 21.11523628 C-5.31144256 18.72004977 -5.3043332 16.32486624 -5.29553413 13.92968941 C-5.29644554 12.79011284 -5.29735695 11.65053627 -5.29829597 10.47642708 C-5.28876396 9.42516136 -5.27923195 8.37389565 -5.26941109 7.29077339 C-5.2648037 6.36272392 -5.2601963 5.43467445 -5.2554493 4.47850227 C-4.82637494 0.8042345 -3.56292389 0.29278546 0 0 Z " fill="#FE9518" transform="translate(41.99475288391113,281.75390434265137)"/>
<path d="M0 0 C7.59 0 15.18 0 23 0 C23.00423194 1.63004597 23.00846388 3.26009193 23.01282406 4.93953323 C23.11343791 43.60887759 23.21913535 82.27820519 23.33111694 120.94751836 C23.34488699 125.70410719 23.35861401 130.46069613 23.37231445 135.21728516 C23.37640691 136.63774862 23.37640691 136.63774862 23.38058204 138.08690831 C23.42469113 153.43249984 23.46531303 168.77809874 23.50465261 184.12370315 C23.54507767 199.86254647 23.58923532 215.6013761 23.63687855 231.34019923 C23.66617312 241.05665686 23.69253496 250.77311345 23.71517897 260.48958889 C23.73097246 267.14701047 23.75038224 273.80441531 23.77266841 280.46181831 C23.7854302 284.30626885 23.79656626 288.1507065 23.80341911 291.9951725 C23.81088151 296.15828904 23.8259428 300.32134295 23.84178162 304.48443604 C23.84275972 305.70621528 23.84373783 306.92799452 23.84474558 308.18679738 C23.85022002 309.29899797 23.85569446 310.41119856 23.8613348 311.5571022 C23.86399284 312.51855408 23.86665089 313.48000596 23.86938947 314.47059274 C23.99207312 316.84648781 24.12966149 318.78451502 25 321 C27.99615946 322.3045656 27.99615946 322.3045656 31 323 C31 323.33 31 323.66 31 324 C26.93774179 324.11638426 22.8759137 324.18731373 18.8125 324.25 C17.66201172 324.28351563 16.51152344 324.31703125 15.32617188 324.3515625 C14.21435547 324.36445313 13.10253906 324.37734375 11.95703125 324.390625 C10.93585205 324.41157227 9.91467285 324.43251953 8.86254883 324.45410156 C5.25123283 323.88121902 3.61065927 322.50385825 1 320 C-0.27851237 317.44297527 -0.12417456 315.65172566 -0.12304783 312.78758049 C-0.12503888 311.6758786 -0.12702993 310.56417671 -0.12908131 309.41878688 C-0.12616847 308.18729101 -0.12325563 306.95579513 -0.12025452 305.6869812 C-0.12153615 303.73656345 -0.12153615 303.73656345 -0.12284368 301.74674332 C-0.1250883 298.12555052 -0.1210678 294.50438708 -0.11606562 290.88319802 C-0.11176084 286.98271956 -0.11320756 283.08224286 -0.1139679 279.1817627 C-0.11449311 272.41991659 -0.11134654 265.65808011 -0.10573006 258.89623642 C-0.09761476 249.11965728 -0.09499981 239.34308282 -0.09374207 229.56650068 C-0.09155159 213.70595224 -0.08489163 197.84540893 -0.07543945 181.98486328 C-0.06626521 166.57470729 -0.05918444 151.1645527 -0.05493164 135.75439453 C-0.05466892 134.80505538 -0.05440619 133.85571624 -0.05413551 132.87760924 C-0.0528305 128.11521586 -0.05156679 123.35282247 -0.05032361 118.59042907 C-0.03995114 79.06028242 -0.02225879 39.53014163 0 0 Z " fill="#C3DDF4" transform="translate(0,57)"/>
<path d="M0 0 C0.83883162 0.00184359 1.67766323 0.00368717 2.54191399 0.00558662 C3.50387688 0.0028373 4.46583977 0.00008797 5.45695305 -0.00274467 C6.51574669 0.00444588 7.57454033 0.01163643 8.66541862 0.01904488 C9.77761772 0.01875282 10.88981682 0.01846077 12.03571892 0.01815987 C15.72600313 0.01955747 19.41608749 0.03513904 23.10633659 0.05078316 C25.65938519 0.05451175 28.21243522 0.05735945 30.76548576 0.0593586 C36.80742348 0.06622463 42.84927491 0.0820007 48.89117801 0.10205758 C56.44335244 0.126585 63.99553854 0.13754859 71.54774284 0.14843941 C85.02305952 0.16793187 98.49821864 0.20799395 111.97352409 0.24609566 C111.97352409 18.72609566 111.97352409 37.20609566 111.97352409 56.24609566 C89.68639571 56.49566158 89.68639571 56.49566158 80.03797722 56.60156441 C73.50614922 56.67326599 66.97432479 56.74521793 60.44251823 56.81884956 C55.16456659 56.87832895 49.88660213 56.93652829 44.60862732 56.99391365 C42.61525869 57.0157976 40.6218947 57.03810957 38.62853622 57.06089973 C24.40967918 57.22306195 10.19328529 57.27425677 -4.02647591 57.24609566 C-4.07609629 49.44989266 -4.11215704 41.65374923 -4.13633919 33.85742378 C-4.1464168 31.20343635 -4.16007904 28.54946006 -4.17735481 25.89550972 C-4.20152582 22.08786458 -4.21294125 18.28036582 -4.22178841 14.47265816 C-4.23211098 13.27992287 -4.24243355 12.08718758 -4.25306892 10.85830879 C-4.25321999 9.7573185 -4.25337105 8.6563282 -4.25352669 7.52197456 C-4.26018852 6.06303276 -4.26018852 6.06303276 -4.26698494 4.57461739 C-3.95062512 1.51173573 -3.11949667 0.37883233 0 0 Z " fill="#293D7B" transform="translate(4.02647590637207,-0.2460956573486328)"/>
<path d="M0 0 C1.03655645 -0.0034177 2.07311289 -0.0068354 3.14108014 -0.01035666 C6.6252768 -0.01696167 10.10870842 0.0050846 13.59283447 0.0269165 C16.08600344 0.02804441 18.57917373 0.02741223 21.07234192 0.02514648 C26.44553268 0.02423469 31.81848388 0.0356028 37.19161224 0.05809784 C44.9602191 0.09060058 52.728732 0.10102307 60.49739948 0.10604981 C73.10136726 0.11480519 85.70523151 0.14142731 98.30914307 0.17926025 C110.5529529 0.21597408 122.79673462 0.2442889 135.04058838 0.2612915 C136.17257686 0.26286784 136.17257686 0.26286784 137.32743379 0.26447603 C141.11332111 0.26969617 144.89920862 0.274751 148.68509626 0.27972364 C180.0948473 0.32119324 211.5044697 0.39194549 242.91412354 0.48101807 C239.68690707 2.13469721 236.45676837 3.38725694 233.03912354 4.60601807 C225.49870183 7.45822741 218.80907486 11.36520333 211.91412354 15.48101807 C208.62222501 17.12696733 204.96595558 16.60762124 201.34848022 16.59022522 C200.45121212 16.58981836 199.55394401 16.58941149 198.62948596 16.5889923 C195.60470808 16.58628192 192.57999865 16.57625987 189.55523682 16.56622314 C187.39397236 16.56262923 185.23270722 16.55942383 183.07144165 16.55657959 C177.18716074 16.54718651 171.30291986 16.53084919 165.41866159 16.51220918 C161.74580335 16.50058529 158.0729434 16.48991404 154.40008163 16.47946739 C142.9182994 16.44621305 131.43654572 16.40813506 119.95479977 16.36410218 C106.6824774 16.31335441 93.41024547 16.27912714 80.1378423 16.25892144 C69.89062552 16.24226247 59.64352535 16.21041397 49.39638698 16.16707534 C43.27056688 16.14153678 37.14489244 16.12263751 31.01901627 16.11969948 C25.25860709 16.11655519 19.4985765 16.09464705 13.73828506 16.05814362 C11.62108516 16.04800295 9.50384004 16.04471005 7.38661957 16.04867363 C4.501885 16.05304016 1.61832812 16.0330215 -1.26626587 16.00672913 C-2.10925889 16.01380742 -2.95225191 16.02088572 -3.82079017 16.02817851 C-7.42846228 15.97187888 -9.63728616 15.80395403 -12.60585213 13.66691113 C-14.78236569 10.45235189 -14.62712997 8.26979261 -14.08587646 4.48101807 C-10.64940734 -0.8879918 -5.74472897 -0.06880838 0 0 Z " fill="#92E0E8" transform="translate(44.08587646484375,212.51898193359375)"/>
<path d="M0 0 C0.66 0.33 1.32 0.66 2 1 C1.54109375 1.83660156 1.0821875 2.67320312 0.609375 3.53515625 C-8.65646548 21.11300069 -12.14423665 39.35666052 -7.4375 58.9375 C-1.4264856 78.16854258 9.97600238 93.72263198 27.86621094 103.31958008 C45.75130099 112.43288091 64.70923376 113.5365589 84 108 C89.29942717 106.11285796 94.31064461 104.12623693 99 101 C100.485 101.495 100.485 101.495 102 102 C89.90692035 115.32149632 73.68530659 125.68320165 55.36523438 127.22119141 C33.31716578 128.14181971 15.0196711 123.90845235 -2 109 C-2.67546875 108.41863281 -3.3509375 107.83726562 -4.046875 107.23828125 C-16.74980285 95.49545841 -24.58698981 77.95929771 -25.3359375 60.73828125 C-25.70983165 38.32710683 -19.81594289 20.63727283 -4.16015625 4.05078125 C-2.79797056 2.67577499 -1.40324237 1.33308025 0 0 Z " fill="#52BAEE" transform="translate(266,257)"/>
<path d="M0 0 C1.24728661 -0.00384491 1.24728661 -0.00384491 2.51977092 -0.0077675 C5.31601339 -0.01272297 8.11172018 0.00381646 10.90791321 0.02018738 C12.90833015 0.02103327 14.90874803 0.02055925 16.90916443 0.01885986 C22.34897705 0.01799701 27.78859234 0.03566977 33.22835898 0.05658174 C38.90984845 0.07530017 44.59134213 0.07709516 50.27285767 0.08065796 C61.03571398 0.08999265 71.79847919 0.11462571 82.56129533 0.14470643 C94.81263048 0.17820614 107.06396992 0.1947253 119.31533945 0.20979273 C144.521134 0.24117401 169.72684761 0.29396218 194.93257141 0.36076355 C192.93257141 3.36076355 190.93257141 6.36076355 188.93257141 9.36076355 C188.36432113 10.43587378 187.79607084 11.510984 187.21060085 12.61867332 C184.93257141 15.36076355 184.93257141 15.36076355 181.47142887 16.11022377 C180.05931249 16.14059183 178.64625355 16.13781171 177.23410034 16.10920715 C176.06432779 16.12113037 176.06432779 16.12113037 174.87092346 16.13329446 C172.25474705 16.15256197 169.64072847 16.12889847 167.02461243 16.10539246 C165.15037732 16.11024787 163.27614737 16.11768611 161.40193176 16.1275177 C156.30874427 16.14635101 151.21632444 16.12747252 146.12319684 16.10085344 C140.79638361 16.0782415 135.46960865 16.08643821 130.14276123 16.09034729 C121.19553569 16.09211395 112.24861299 16.06993788 103.3014679 16.03312683 C92.95512881 15.990803 82.60923366 15.98376849 72.26282555 15.99625075 C62.31447964 16.00763869 52.36629019 15.99634522 42.41796684 15.97390366 C38.18240912 15.96461114 33.94694707 15.96286419 29.71138191 15.96707535 C24.72327357 15.97084159 19.73561727 15.95463069 14.747612 15.92295456 C12.91625018 15.91446618 11.0848425 15.91276962 9.25346947 15.91833496 C6.75449161 15.92477715 4.25686502 15.90662354 1.75802612 15.88215637 C1.03214768 15.88971502 0.30626925 15.89727367 -0.44160551 15.90506136 C-5.23253457 15.82200275 -7.71855297 14.78582501 -11.06742859 11.36076355 C-11.92660314 8.41582973 -11.46599069 6.49944006 -11.06742859 3.36076355 C-8.59015297 -0.79653936 -4.31209154 -0.04823987 0 0 Z " fill="#93E0E8" transform="translate(41.06742858886719,243.6392364501953)"/>
<path d="M0 0 C0.95310059 0.01047363 1.90620117 0.02094727 2.88818359 0.03173828 C4.43505859 0.04140625 4.43505859 0.04140625 6.01318359 0.05126953 C7.63353516 0.07640625 7.63353516 0.07640625 9.28662109 0.10205078 C10.37458984 0.11107422 11.46255859 0.12009766 12.58349609 0.12939453 C15.27642261 0.15301669 17.96891365 0.18595522 20.66162109 0.22705078 C20.33162109 0.88705078 20.00162109 1.54705078 19.66162109 2.22705078 C19.56841749 4.97334621 19.53585015 7.69408245 19.5480957 10.44042969 C19.54794968 11.28928238 19.54780365 12.13813507 19.5476532 13.01271057 C19.54835144 15.82637055 19.55613969 18.63996483 19.56396484 21.45361328 C19.56582934 23.40131596 19.56725309 25.3490191 19.56825256 27.29672241 C19.57207526 32.42925302 19.58190345 37.56175545 19.59295654 42.6942749 C19.60317598 47.92915465 19.60775133 53.16403894 19.61279297 58.39892578 C19.62352592 68.67497985 19.64059939 78.95101297 19.66162109 89.22705078 C16.03668775 89.28492862 12.41187252 89.32060498 8.78662109 89.35205078 C7.75408203 89.36880859 6.72154297 89.38556641 5.65771484 89.40283203 C4.67158203 89.40927734 3.68544922 89.41572266 2.66943359 89.42236328 C1.75822754 89.43283691 0.84702148 89.44331055 -0.09179688 89.45410156 C-2.33837891 89.22705078 -2.33837891 89.22705078 -4.33837891 87.22705078 C-4.53689469 84.52721703 -4.61110676 81.92995663 -4.59716797 79.22900391 C-4.60067261 78.40287094 -4.60417725 77.57673798 -4.60778809 76.72557068 C-4.61661272 73.98639601 -4.61075371 71.24747822 -4.60400391 68.50830078 C-4.60535035 66.61022899 -4.6072907 64.71215753 -4.60980225 62.81408691 C-4.6127545 58.83273033 -4.60845262 54.85146337 -4.59912109 50.87011719 C-4.58772651 45.75852576 -4.59428544 40.64714433 -4.60626602 35.53556061 C-4.61348189 31.61515715 -4.61119795 27.69480374 -4.60601044 23.7743988 C-4.60467318 21.88927689 -4.60632429 20.00415048 -4.61096954 18.11903381 C-4.6160303 15.48759873 -4.60833099 12.85650706 -4.59716797 10.22509766 C-4.60324066 9.04837746 -4.60324066 9.04837746 -4.60943604 7.84788513 C-4.55102546 0.44189326 -4.55102546 0.44189326 0 0 Z " fill="#52BBEF" transform="translate(41.33837890625,93.77294921875)"/>
<path d="M0 0 C1.60030563 -0.01475121 1.60030563 -0.01475121 3.23294067 -0.02980042 C4.98090187 -0.01529846 4.98090187 -0.01529846 6.76417542 -0.00050354 C7.99543152 -0.00590652 9.22668762 -0.01130951 10.49525452 -0.01687622 C13.86956812 -0.02724189 17.24290147 -0.01965924 20.61712909 -0.00316501 C24.1502031 0.01069267 27.68324773 0.00422449 31.21633911 0.0007019 C37.15049953 -0.00200002 43.08445767 0.01147245 49.01856995 0.03465271 C55.87486483 0.06125024 62.73082125 0.06301346 69.58715004 0.05126435 C76.18663379 0.04047591 82.78599537 0.04668274 89.38546944 0.06081963 C92.19199074 0.06657147 94.9984224 0.06650306 97.80494499 0.06175423 C101.72638068 0.05608534 105.64747931 0.07532525 109.56886292 0.09715271 C110.73214615 0.09265106 111.89542938 0.08814941 113.09396362 0.08351135 C114.69849899 0.0983683 114.69849899 0.0983683 116.33544922 0.11352539 C117.26218665 0.11595529 118.18892408 0.11838518 119.14374447 0.12088871 C122.56661457 0.62399553 125.26995786 2.03994688 127.73121643 4.50120544 C128.31921313 10.73397045 128.31921313 10.73397045 126.04615021 13.69992828 C123.2416487 15.88214385 121.89889627 16.00350849 118.379776 16.00914001 C117.29463211 16.02041931 116.20948822 16.03169861 115.09146118 16.0433197 C113.3130912 16.03117432 113.3130912 16.03117432 111.49879456 16.01878357 C110.24642502 16.02579285 108.99405548 16.03280212 107.70373535 16.0400238 C104.27165547 16.05461461 100.8405399 16.05119261 97.40851402 16.03850746 C93.81623924 16.02837697 90.22400553 16.03777326 86.63172913 16.04405212 C80.59922389 16.05132843 74.56691457 16.04174143 68.53443909 16.02268982 C61.56105045 16.00092089 54.5881296 16.00797229 47.61475229 16.02999544 C41.62650757 16.04815008 35.63840364 16.05070752 29.65014029 16.04024076 C26.07406541 16.0340061 22.49821039 16.0331692 18.92214966 16.04638672 C14.93579437 16.06009166 10.94996264 16.04109428 6.96363831 16.01878357 C5.77805832 16.02688049 4.59247833 16.03497742 3.37097168 16.0433197 C1.74325584 16.02640076 1.74325584 16.02640076 0.08265686 16.00914001 C-0.85975105 16.00763191 -1.80215897 16.00612381 -2.77312469 16.00457001 C-6.04858844 15.34392188 -7.24231266 14.11314522 -9.26878357 11.50120544 C-9.76878357 8.00120544 -9.76878357 8.00120544 -9.26878357 4.50120544 C-6.42886793 0.85121705 -4.57549743 0.0010337 0 0 Z " fill="#91E0E8" transform="translate(200.26878356933594,175.49879455566406)"/>
<path d="M0 0 C1.60030563 -0.01475121 1.60030563 -0.01475121 3.23294067 -0.02980042 C4.98090187 -0.01529846 4.98090187 -0.01529846 6.76417542 -0.00050354 C7.99543152 -0.00590652 9.22668762 -0.01130951 10.49525452 -0.01687622 C13.86956812 -0.02724189 17.24290147 -0.01965924 20.61712909 -0.00316501 C24.1502031 0.01069267 27.68324773 0.00422449 31.21633911 0.0007019 C37.15049953 -0.00200002 43.08445767 0.01147245 49.01856995 0.03465271 C55.87486483 0.06125024 62.73082125 0.06301346 69.58715004 0.05126435 C76.18663379 0.04047591 82.78599537 0.04668274 89.38546944 0.06081963 C92.19199074 0.06657147 94.9984224 0.06650306 97.80494499 0.06175423 C101.72638068 0.05608534 105.64747931 0.07532525 109.56886292 0.09715271 C110.73214615 0.09265106 111.89542938 0.08814941 113.09396362 0.08351135 C114.69849899 0.0983683 114.69849899 0.0983683 116.33544922 0.11352539 C117.26218665 0.11595529 118.18892408 0.11838518 119.14374447 0.12088871 C122.56661457 0.62399553 125.26995786 2.03994688 127.73121643 4.50120544 C128.31921313 10.73397045 128.31921313 10.73397045 126.04615021 13.69992828 C123.2416487 15.88214385 121.89889627 16.00350849 118.379776 16.00914001 C117.29463211 16.02041931 116.20948822 16.03169861 115.09146118 16.0433197 C113.3130912 16.03117432 113.3130912 16.03117432 111.49879456 16.01878357 C110.24642502 16.02579285 108.99405548 16.03280212 107.70373535 16.0400238 C104.27165547 16.05461461 100.8405399 16.05119261 97.40851402 16.03850746 C93.81623924 16.02837697 90.22400553 16.03777326 86.63172913 16.04405212 C80.59922389 16.05132843 74.56691457 16.04174143 68.53443909 16.02268982 C61.56105045 16.00092089 54.5881296 16.00797229 47.61475229 16.02999544 C41.62650757 16.04815008 35.63840364 16.05070752 29.65014029 16.04024076 C26.07406541 16.0340061 22.49821039 16.0331692 18.92214966 16.04638672 C14.93579437 16.06009166 10.94996264 16.04109428 6.96363831 16.01878357 C5.77805832 16.02688049 4.59247833 16.03497742 3.37097168 16.0433197 C1.74325584 16.02640076 1.74325584 16.02640076 0.08265686 16.00914001 C-0.85975105 16.00763191 -1.80215897 16.00612381 -2.77312469 16.00457001 C-6.04858844 15.34392188 -7.24231266 14.11314522 -9.26878357 11.50120544 C-9.76878357 8.00120544 -9.76878357 8.00120544 -9.26878357 4.50120544 C-6.42886793 0.85121705 -4.57549743 0.0010337 0 0 Z " fill="#92E0E8" transform="translate(200.26878356933594,145.49879455566406)"/>
<path d="M0 0 C1.60030563 -0.01475121 1.60030563 -0.01475121 3.23294067 -0.02980042 C4.98090187 -0.01529846 4.98090187 -0.01529846 6.76417542 -0.00050354 C7.99543152 -0.00590652 9.22668762 -0.01130951 10.49525452 -0.01687622 C13.86956812 -0.02724189 17.24290147 -0.01965924 20.61712909 -0.00316501 C24.1502031 0.01069267 27.68324773 0.00422449 31.21633911 0.0007019 C37.15049953 -0.00200002 43.08445767 0.01147245 49.01856995 0.03465271 C55.87486483 0.06125024 62.73082125 0.06301346 69.58715004 0.05126435 C76.18663379 0.04047591 82.78599537 0.04668274 89.38546944 0.06081963 C92.19199074 0.06657147 94.9984224 0.06650306 97.80494499 0.06175423 C101.72638068 0.05608534 105.64747931 0.07532525 109.56886292 0.09715271 C110.73214615 0.09265106 111.89542938 0.08814941 113.09396362 0.08351135 C114.69849899 0.0983683 114.69849899 0.0983683 116.33544922 0.11352539 C117.26218665 0.11595529 118.18892408 0.11838518 119.14374447 0.12088871 C122.56661457 0.62399553 125.26995786 2.03994688 127.73121643 4.50120544 C128.31921313 10.73397045 128.31921313 10.73397045 126.04615021 13.69992828 C123.2416487 15.88214385 121.89889627 16.00350849 118.379776 16.00914001 C117.29463211 16.02041931 116.20948822 16.03169861 115.09146118 16.0433197 C113.3130912 16.03117432 113.3130912 16.03117432 111.49879456 16.01878357 C110.24642502 16.02579285 108.99405548 16.03280212 107.70373535 16.0400238 C104.27165547 16.05461461 100.8405399 16.05119261 97.40851402 16.03850746 C93.81623924 16.02837697 90.22400553 16.03777326 86.63172913 16.04405212 C80.59922389 16.05132843 74.56691457 16.04174143 68.53443909 16.02268982 C61.56105045 16.00092089 54.5881296 16.00797229 47.61475229 16.02999544 C41.62650757 16.04815008 35.63840364 16.05070752 29.65014029 16.04024076 C26.07406541 16.0340061 22.49821039 16.0331692 18.92214966 16.04638672 C14.93579437 16.06009166 10.94996264 16.04109428 6.96363831 16.01878357 C5.77805832 16.02688049 4.59247833 16.03497742 3.37097168 16.0433197 C1.74325584 16.02640076 1.74325584 16.02640076 0.08265686 16.00914001 C-0.85975105 16.00763191 -1.80215897 16.00612381 -2.77312469 16.00457001 C-6.04858844 15.34392188 -7.24231266 14.11314522 -9.26878357 11.50120544 C-9.76878357 8.00120544 -9.76878357 8.00120544 -9.26878357 4.50120544 C-6.42886793 0.85121705 -4.57549743 0.0010337 0 0 Z " fill="#92E0E8" transform="translate(200.26878356933594,115.49879455566406)"/>
<path d="M0 0 C1.04866745 -0.00571014 2.0973349 -0.01142029 3.17778015 -0.01730347 C4.90308205 -0.01898026 4.90308205 -0.01898026 6.66323853 -0.02069092 C7.87484146 -0.02565582 9.0864444 -0.03062073 10.33476257 -0.03573608 C13.6592109 -0.0478449 16.98359632 -0.05530278 20.30805922 -0.05974674 C22.38540512 -0.06267897 24.46274552 -0.06678404 26.54008865 -0.07125092 C33.04075894 -0.0849224 39.54141664 -0.094591 46.04210031 -0.09845281 C53.54424673 -0.10293416 61.04621102 -0.12048697 68.54830205 -0.1494534 C74.3488211 -0.17107198 80.14928891 -0.18115716 85.94984782 -0.18249393 C89.41362107 -0.18354175 92.87722302 -0.18944462 96.34095383 -0.20731354 C100.20495225 -0.22686001 104.06872307 -0.22250453 107.93276978 -0.21600342 C109.07892258 -0.2252182 110.22507538 -0.23443298 111.40596008 -0.243927 C112.98742073 -0.23557327 112.98742073 -0.23557327 114.60083008 -0.22705078 C115.51411764 -0.22851734 116.4274052 -0.2299839 117.36836815 -0.2314949 C120.7780811 0.2640825 123.47696938 1.69001259 125.92739868 4.14044189 C126.51539538 10.3732069 126.51539538 10.3732069 124.24233246 13.33916473 C121.43783095 15.5213803 120.09507852 15.64274494 116.57595825 15.64837646 C115.49081436 15.65965576 114.40567047 15.67093506 113.28764343 15.68255615 C111.50927345 15.67041077 111.50927345 15.67041077 109.69497681 15.65802002 C108.44260727 15.6650293 107.19023773 15.67203857 105.8999176 15.67926025 C102.46783773 15.69385106 99.03672215 15.69042906 95.60469627 15.67774391 C92.01242149 15.66761342 88.42018778 15.67700971 84.82791138 15.68328857 C78.79540614 15.69056488 72.76309682 15.68097788 66.73062134 15.66192627 C59.7572327 15.64015734 52.78431185 15.64720874 45.81093454 15.66923189 C39.82268982 15.68738653 33.83458589 15.68994397 27.84632254 15.67947721 C24.27024766 15.67324255 20.69439264 15.67240565 17.11833191 15.68562317 C13.13197662 15.69932811 9.14614489 15.68033073 5.15982056 15.65802002 C3.97424057 15.66611694 2.78866058 15.67421387 1.56715393 15.68255615 C-0.0605619 15.66563721 -0.0605619 15.66563721 -1.72116089 15.64837646 C-2.6635688 15.64686836 -3.60597672 15.64536026 -4.57694244 15.64380646 C-7.8541204 14.98281257 -9.04986219 13.75825498 -11.07260132 11.14044189 C-11.8039446 5.18521801 -11.8039446 5.18521801 -9.76010132 2.26544189 C-6.55288139 0.12729528 -3.73577473 0.01217782 0 0 Z " fill="#92E0E8" transform="translate(202.07260131835938,85.85955810546875)"/>
<path d="M0 0 C11.22 0 22.44 0 34 0 C33.01 4.95 32.02 9.9 31 15 C30.57579837 19.31890831 30.57579837 19.31890831 30.63671875 23.078125 C30.63622025 23.74108582 30.63572174 24.40404663 30.63520813 25.08709717 C30.63750273 26.45783562 30.64694747 27.82858221 30.66381836 29.19921875 C30.68765489 31.26341318 30.68431323 33.32632509 30.67773438 35.390625 C30.71027192 43.29660534 31.55372621 50.04549414 33 58 C-16.83 58 -66.66 58 -118 58 C-118 57.67 -118 57.34 -118 57 C-79.06 57 -40.12 57 0 57 C0 38.19 0 19.38 0 0 Z " fill="#FDCD14" transform="translate(181,282)"/>
<path d="M0 0 C0.70640625 0.71414063 1.4128125 1.42828125 2.140625 2.1640625 C4.01220533 4.03960245 5.91337091 5.84599109 7.859375 7.6484375 C8.81328125 8.54820312 9.7671875 9.44796875 10.75 10.375 C11.71421875 11.26960938 12.6784375 12.16421875 13.671875 13.0859375 C16.49554083 16.62025748 16.9298486 18.50071705 17 23 C15.08154297 25.82666016 15.08154297 25.82666016 12.2421875 28.5390625 C11.74212189 29.02780853 11.24205627 29.51655457 10.72683716 30.02011108 C9.12740082 31.57491922 7.50252724 33.0996753 5.875 34.625 C4.80286818 35.65696737 3.73253409 36.6908059 2.6640625 37.7265625 C0.68495508 39.64054628 -1.30499121 41.53985937 -3.30517578 43.43212891 C-6.64350835 46.61319268 -9.93118269 49.81997626 -13.02734375 53.23828125 C-13.97287109 54.26501953 -13.97287109 54.26501953 -14.9375 55.3125 C-15.56527344 56.00988281 -16.19304687 56.70726562 -16.83984375 57.42578125 C-19 59 -19 59 -21.73046875 59.73046875 C-26.98287512 58.55699206 -29.78653887 54.84153524 -33.375 51 C-34.11105469 50.236875 -34.84710938 49.47375 -35.60546875 48.6875 C-37.41789848 46.80445613 -39.21486682 44.90888041 -41 43 C-37.6855502 40.30440618 -34.30422498 37.77269618 -30.8125 35.3125 C-18.15544462 26.07810216 -6.17623089 14.70531164 0 0 Z " fill="#2A3D7C" transform="translate(402,360)"/>
<path d="M0 0 C0.95310059 0.01047363 1.90620117 0.02094727 2.88818359 0.03173828 C4.43505859 0.04140625 4.43505859 0.04140625 6.01318359 0.05126953 C7.63353516 0.07640625 7.63353516 0.07640625 9.28662109 0.10205078 C10.37458984 0.11107422 11.46255859 0.12009766 12.58349609 0.12939453 C15.27642261 0.15301669 17.96891365 0.18595522 20.66162109 0.22705078 C20.33162109 0.88705078 20.00162109 1.54705078 19.66162109 2.22705078 C19.56608044 3.91174414 19.53366844 5.60019798 19.53222656 7.28759766 C19.5290744 8.34209106 19.52592224 9.39658447 19.52267456 10.48303223 C19.52469879 11.62574585 19.52672302 12.76845947 19.52880859 13.94580078 C19.52785187 15.11461792 19.52689514 16.28343506 19.52590942 17.4876709 C19.52522796 19.96248427 19.52707987 22.43729942 19.53125 24.91210938 C19.53659869 28.7111409 19.53130382 32.5100542 19.52490234 36.30908203 C19.52556313 38.70882188 19.52684431 41.10856165 19.52880859 43.50830078 C19.52678436 44.6510144 19.52476013 45.79372803 19.52267456 46.97106934 C19.52582672 48.02556274 19.52897888 49.08005615 19.53222656 50.16650391 C19.53302216 51.09756958 19.53381775 52.02863525 19.53463745 52.98791504 C19.51555865 55.26480395 19.51555865 55.26480395 20.66162109 57.22705078 C16.87001812 57.28491746 13.07852798 57.32060132 9.28662109 57.35205078 C8.20638672 57.36880859 7.12615234 57.38556641 6.01318359 57.40283203 C4.98193359 57.40927734 3.95068359 57.41572266 2.88818359 57.42236328 C1.45853271 57.43807373 1.45853271 57.43807373 0 57.45410156 C-2.33837891 57.22705078 -2.33837891 57.22705078 -4.33837891 55.22705078 C-4.59234619 52.98791504 -4.59234619 52.98791504 -4.59716797 50.16650391 C-4.60662445 48.58476379 -4.60662445 48.58476379 -4.61627197 46.97106934 C-4.61222351 45.82835571 -4.60817505 44.68564209 -4.60400391 43.50830078 C-4.60591736 42.33948364 -4.60783081 41.1706665 -4.60980225 39.96643066 C-4.61116517 37.49161565 -4.60746132 35.01679352 -4.59912109 32.54199219 C-4.58842336 28.74283873 -4.59901309 24.94415819 -4.61181641 21.14501953 C-4.61049483 18.7452789 -4.60793248 16.34553856 -4.60400391 13.94580078 C-4.60805237 12.80308716 -4.61210083 11.66037354 -4.61627197 10.48303223 C-4.60996765 9.42853882 -4.60366333 8.37404541 -4.59716797 7.28759766 C-4.59557678 6.35653198 -4.5939856 5.42546631 -4.59234619 4.46618652 C-4.22518932 1.22909997 -3.2273033 0.31336313 0 0 Z " fill="#EF8318" transform="translate(41.33837890625,281.77294921875)"/>
<path d="M0 0 C1.49249268 0.01571045 1.49249268 0.01571045 3.01513672 0.03173828 C4.6296875 0.04140625 4.6296875 0.04140625 6.27685547 0.05126953 C7.40478516 0.06802734 8.53271484 0.08478516 9.69482422 0.10205078 C11.39832031 0.11558594 11.39832031 0.11558594 13.13623047 0.12939453 C15.94763721 0.1530198 18.7586272 0.18596065 21.56982422 0.22705078 C21.08537842 0.81188232 20.60093262 1.39671387 20.10180664 1.99926758 C17.79227819 6.86528761 18.08932238 11.54775799 18.05810547 16.87158203 C18.04015427 17.99650558 18.02220306 19.12142914 18.00370789 20.28044128 C17.94960706 23.86677321 17.91570897 27.45297203 17.88232422 31.03955078 C17.84915105 33.47381409 17.8146614 35.90805984 17.77880859 38.34228516 C17.69140691 44.30389286 17.63133348 50.26489479 17.56982422 56.22705078 C10.30982422 56.22705078 3.04982422 56.22705078 -4.43017578 56.22705078 C-4.47949639 48.57325184 -4.51585759 40.91954474 -4.54003906 33.265625 C-4.55011642 30.66013987 -4.56377848 28.05466609 -4.58105469 25.44921875 C-4.60522681 21.71107179 -4.61664138 17.97307394 -4.62548828 14.23486328 C-4.63581085 13.06400177 -4.64613342 11.89314026 -4.6567688 10.6867981 C-4.65691986 9.60582855 -4.65707092 8.52485901 -4.65722656 7.41113281 C-4.66166779 6.45626984 -4.66610901 5.50140686 -4.67068481 4.51760864 C-4.3206246 1.18370816 -3.31228675 0.30946621 0 0 Z " fill="#1A2B63" transform="translate(4.43017578125,-0.22705078125)"/>
<path d="M0 0 C3.87816033 1.43323316 4.79564744 2.6457889 6.875 6.25 C8.14849453 10.49498178 8.25641626 12.75959514 7 17 C4.5 19.875 4.5 19.875 2 22 C1.67 22.33 1.34 22.66 1 23 C-3.81539887 23.54396172 -7.75730895 23.72490311 -12 21.25 C-15.56908829 17.23477567 -16.45796427 14.4895624 -16.32421875 8.96484375 C-15.80766846 5.83442451 -14.22817871 4.16451646 -12 2 C-7.94165437 -0.70556375 -4.75867154 -0.51943246 0 0 Z " fill="#D6E9FC" transform="translate(329,253)"/>
<path d="M0 0 C4.65469066 3.87890889 8.98640026 7.91396506 13.203125 12.265625 C15.08604947 14.18645107 15.08604947 14.18645107 18 16 C16.47789133 17.68454715 14.93145107 19.3471316 13.375 21 C12.51648438 21.928125 11.65796875 22.85625 10.7734375 23.8125 C8 26 8 26 5.1875 26.8125 C0.03223651 25.49841323 -2.82022205 21.80547657 -6.375 18 C-7.11105469 17.236875 -7.84710938 16.47375 -8.60546875 15.6875 C-10.41789848 13.80445613 -12.21486682 11.90888041 -14 10 C-10.8255451 7.40630683 -7.61364794 5.0000076 -4.1875 2.75 C-3.00220703 1.96882813 -3.00220703 1.96882813 -1.79296875 1.171875 C-1.20128906 0.78515625 -0.60960937 0.3984375 0 0 Z " fill="#1C2B63" transform="translate(375,393)"/>
<path d="M0 0 C2.5 1.5 2.5 1.5 4 4 C4.791013 8.02098277 4.62153384 10.96411027 2.5 14.5 C-1.03588973 16.62153384 -3.97901723 16.791013 -8 16 C-10.5 14.5 -10.5 14.5 -12 12 C-12.791013 7.97901723 -12.62153384 5.03588973 -10.5 1.5 C-6.96411027 -0.62153384 -4.02098277 -0.791013 0 0 Z " fill="#D7E9FC" transform="translate(354,269)"/>
<path d="M0 0 C2.4375 1.625 2.4375 1.625 4 4 C4.60605429 7.63632575 4.47161336 9.28314769 2.4375 12.375 C-0.93510779 14.62340519 -3.02512383 14.56783945 -7 14 C-9.4375 12.375 -9.4375 12.375 -11 10 C-11.60605429 6.36367425 -11.47161336 4.71685231 -9.4375 1.625 C-6.06489221 -0.62340519 -3.97487617 -0.56783945 0 0 Z " fill="#F7AB13" transform="translate(63,20)"/>
<path d="M0 0 C2.4375 1.625 2.4375 1.625 4 4 C4.48288863 7.31123632 4.29618989 9.296549 3 12.375 C0.2897489 14.57707902 -1.70878117 14.51582761 -5.125 14.30859375 C-7 14 -7 14 -9 13 C-10.62932095 9.7413581 -10.52673518 6.56102656 -10 3 C-7.83165681 -1.08158719 -4.19361486 -0.51500533 0 0 Z " fill="#DD6492" transform="translate(38,20)"/>
<path d="M0 0 C2.375 1 2.375 1 4 3 C4.65964122 6.55761554 4.63041883 9.73916234 3 13 C-0.26083766 14.63041883 -3.44238446 14.65964122 -7 14 C-9.6923481 11.81246717 -9.93936827 10.41576045 -10.4375 7 C-10 4 -10 4 -8.375 1.625 C-5.30522452 -0.4753727 -3.65443439 -0.53293835 0 0 Z " fill="#36C17A" transform="translate(87,20)"/>
</svg>
