<?xml version="1.0" encoding="UTF-8"?>
<svg version="1.1" xmlns="http://www.w3.org/2000/svg" width="512" height="512">
<path d="M0 0 C3.72346655 1.46212663 6.76047476 3.67440705 10 6 C11.40907776 6.97811801 12.81933334 7.95454042 14.23046875 8.9296875 C32.665303 21.75015141 32.665303 21.75015141 35 29 C36.19153341 38.36204822 30.2639187 45.35551598 24.9375 52.5 C23.76674919 54.09526909 22.59750352 55.69164376 21.4296875 57.2890625 C20.84928711 58.0821582 20.26888672 58.87525391 19.67089844 59.69238281 C17.24215681 63.04662972 14.89511458 66.45348406 12.5625 69.875 C8.47544735 75.86036135 4.34759062 81.8151365 0.1875 87.75 C-0.39281982 88.57798096 -0.97313965 89.40596191 -1.57104492 90.2590332 C-2.76347856 91.95977097 -3.95610811 93.66037139 -5.14892578 95.36083984 C-8.35131813 99.92663532 -11.55079903 104.49446808 -14.75 109.0625 C-15.34659424 109.91360352 -15.94318848 110.76470703 -16.55786133 111.64160156 C-17.11111084 112.43147461 -17.66436035 113.22134766 -18.234375 114.03515625 C-18.96479004 115.07748413 -18.96479004 115.07748413 -19.70996094 116.14086914 C-20.82509166 117.74793206 -21.91497356 119.37246033 -23 121 C-21.80632812 121.350625 -20.61265625 121.70125 -19.3828125 122.0625 C-13.24457488 124.11257078 -7.56708138 127.06568879 -1.82009888 130.00549316 C1.53369671 131.72025053 4.898322 133.41354978 8.26171875 135.109375 C8.93274124 135.44829773 9.60376373 135.78722046 10.29512024 136.13641357 C15.8074258 138.91603171 21.35814034 141.60744856 26.9375 144.25 C39.91131379 150.40232157 52.80911791 156.71039236 65.70431519 163.02547169 C67.29836953 163.80183943 68.89515214 164.57265206 70.49563789 165.33567333 C74.62508599 167.31059438 78.67273399 169.35197635 82.65293884 171.61390686 C96.71078395 179.34698434 108.63928875 180.35740414 124.46484375 180.0546875 C126.84183451 180.04829843 129.21884351 180.0469421 131.59584045 180.05032349 C137.78367684 180.04849188 143.96957271 179.99088074 150.15692139 179.91705322 C160.10858749 179.80635598 170.06058941 179.77510953 180.01278877 179.75769424 C183.47323321 179.74242624 186.93243251 179.69855535 190.39256287 179.65084839 C192.50771614 179.63738473 194.62287428 179.6246592 196.73803711 179.61279297 C198.17101135 179.58168175 198.17101135 179.58168175 199.63293457 179.54994202 C205.24970098 179.54652881 208.64563473 180.08656957 213 184 C216.22877243 188.21796914 216.42850451 191.98285653 216.38768005 197.1157074 C216.39575836 198.33470587 216.39575836 198.33470587 216.40399987 199.57833058 C216.41829731 202.29903823 216.41117137 205.01926057 216.40405273 207.73999023 C216.40975537 209.69156282 216.41671921 211.64313207 216.42485046 213.59469604 C216.44280872 218.8942686 216.44160846 224.19367582 216.43590808 229.49326968 C216.43282011 233.91685146 216.43890432 238.3404013 216.44494683 242.76397854 C216.45899919 253.19920602 216.45742481 263.63435164 216.44604492 274.06958008 C216.43456249 284.83680471 216.44863994 295.60378029 216.4754414 306.3709721 C216.49758893 315.61442013 216.50423792 324.85778994 216.49836498 334.10126263 C216.49499201 339.62238818 216.49743318 345.14335407 216.51461601 350.66445732 C216.53006793 355.8560774 216.52614895 361.04732817 216.50731087 366.23893356 C216.50362016 368.14407213 216.50674746 370.04923794 216.51719666 371.95435143 C216.53037536 374.55576431 216.51888722 377.15594897 216.50120544 379.75730896 C216.51081045 380.51072002 216.52041546 381.26413109 216.53031152 382.04037279 C216.45872779 387.16106578 215.18477605 390.03176825 212 394 C210.23925781 395.68408203 210.23925781 395.68408203 208.453125 397.0078125 C207.44403076 397.76723145 207.44403076 397.76723145 206.41455078 398.54199219 C205.34309814 399.32558105 205.34309814 399.32558105 204.25 400.125 C203.50862793 400.67833008 202.76725586 401.23166016 202.00341797 401.80175781 C200.45454319 402.95710634 198.90290428 404.10875776 197.34863281 405.25683594 C195.02829733 406.97899761 192.72662493 408.72334935 190.4296875 410.4765625 C188.99489087 411.56783878 187.5599988 412.65898959 186.125 413.75 C185.4537207 414.26320801 184.78244141 414.77641602 184.09082031 415.30517578 C177.75903835 420.07929371 172.79388424 420.79165348 165 420 C159.91282845 417.63809892 157.96536591 415.18075337 156 410 C155.53202885 405.86961045 155.5113574 401.75537912 155.48828125 397.6015625 C155.46135445 395.81641739 155.46135445 395.81641739 155.43388367 393.99520874 C155.3798301 390.20517487 155.34589971 386.41526662 155.3125 382.625 C155.27932268 380.05076379 155.24483264 377.47654415 155.20898438 374.90234375 C155.12410622 368.60167514 155.05573515 362.30099018 155 356 C154.19594727 356.4125 153.39189453 356.825 152.56347656 357.25 C118.92629418 374.44766928 83.8741222 389.97414511 45.328125 390.203125 C44.53177139 390.21013931 43.73541779 390.21715363 42.91493225 390.22438049 C40.35989655 390.24177903 37.80509276 390.24823256 35.25 390.25 C33.9394313 390.25101212 33.9394313 390.25101212 32.60238647 390.25204468 C19.51564467 390.23598106 6.83027297 389.80166804 -6 387 C-6.81307617 386.82839355 -7.62615234 386.65678711 -8.46386719 386.47998047 C-14.37423248 385.20271149 -20.19525864 383.69179338 -26 382 C-26.77569336 381.77393066 -27.55138672 381.54786133 -28.35058594 381.31494141 C-37.00147231 378.70879388 -45.2139654 375.46807244 -53.3203125 371.47265625 C-53.95854446 371.15867386 -54.59677643 370.84469147 -55.25434875 370.52119446 C-58.43285984 368.94942301 -61.59416202 367.35112239 -64.73803711 365.71118164 C-71.92597403 362.06947171 -77.88916149 359.94006515 -86 360 C-85.96072388 361.64814697 -85.96072388 361.64814697 -85.9206543 363.32958984 C-85.82941634 367.4481937 -85.77248661 371.56671029 -85.7253418 375.68603516 C-85.70036373 377.46092809 -85.66636874 379.23571993 -85.62280273 381.01025391 C-85.17453433 399.75314703 -85.17453433 399.75314703 -91 408 C-91.556875 408.9075 -92.11375 409.815 -92.6875 410.75 C-100.00809286 417.872739 -107.78339098 420.31546377 -117.73168945 420.39160156 C-124.11046325 420.27372901 -128.70135544 418.59888135 -134 415 C-134.9075 414.443125 -135.815 413.88625 -136.75 413.3125 C-140.69213859 409.26085756 -145 403.79784287 -145 398 C-145.66 398 -146.32 398 -147 398 C-147.17015625 399.10021484 -147.17015625 399.10021484 -147.34375 400.22265625 C-149.1377618 407.81517048 -154.33666076 412.79352572 -160.75390625 416.80859375 C-168.13586886 420.72424348 -175.79630437 421.06260142 -184 420 C-187.73457505 418.81644149 -190.76942915 417.19422931 -194 415 C-194.9075 414.443125 -195.815 413.88625 -196.75 413.3125 C-201.94782344 407.97029257 -206.14843763 401.11720629 -206.09765625 393.55078125 C-206.09282227 392.27944336 -206.09282227 392.27944336 -206.08789062 390.98242188 C-206.07951172 390.10134766 -206.07113281 389.22027344 -206.0625 388.3125 C-206.05798828 387.41982422 -206.05347656 386.52714844 -206.04882812 385.60742188 C-206.03704983 383.40488013 -206.02060164 381.20247401 -206 379 C-208.60545453 380.87321491 -211.20908735 382.74894853 -213.8125 384.625 C-214.61333008 385.20096924 -215.41416016 385.77693848 -216.23925781 386.37036133 C-220.59492207 389.51109128 -224.92438328 392.68080345 -229.21484375 395.91015625 C-230.05748779 396.54163574 -230.90013184 397.17311523 -231.76831055 397.82373047 C-233.39321872 399.04405009 -235.01338462 400.27071613 -236.62817383 401.50439453 C-241.64247504 405.26065643 -246.42179054 408.72468539 -253 407.875 C-258.05340099 407.04403923 -261.44534145 404.71012441 -264.875 400.9375 C-267.9168389 392.99492066 -265.71460408 384.41465832 -263.296875 376.58203125 C-263.01781311 375.63994308 -262.73875122 374.69785492 -262.45123291 373.72721863 C-261.86310241 371.75294569 -261.26777657 369.78080294 -260.66552734 367.81079102 C-259.75055629 364.81432182 -258.85989279 361.81142484 -257.97265625 358.80664062 C-257.39464204 356.87718034 -256.81526108 354.94812887 -256.234375 353.01953125 C-255.97066101 352.13288284 -255.70694702 351.24623444 -255.4352417 350.3327179 C-253.29039183 343.36270361 -250.71863732 336.66236479 -246 331 C-246.87140625 330.97421875 -247.7428125 330.9484375 -248.640625 330.921875 C-263.54418986 330.21218144 -275.43458159 326.25877072 -285.8125 315.1875 C-292.97291547 306.47340948 -296.35565384 296.5042556 -296.375 285.3125 C-296.41173828 284.22291992 -296.41173828 284.22291992 -296.44921875 283.11132812 C-296.5074026 271.94972604 -291.70775049 262.68153962 -285.625 253.625 C-284.36683666 251.70075018 -283.10903433 249.77626428 -281.8515625 247.8515625 C-281.2112207 246.8812207 -280.57087891 245.91087891 -279.91113281 244.91113281 C-276.88864274 240.3071252 -273.94702586 235.6525192 -271 231 C-269.83637001 229.17029778 -268.67230632 227.34087131 -267.5078125 225.51171875 C-266.93063477 224.60470215 -266.35345703 223.69768555 -265.75878906 222.76318359 C-263.98298753 219.97327219 -262.20642613 217.18384594 -260.4296875 214.39453125 C-254.93840686 205.77225726 -249.45391721 197.14596669 -244 188.5 C-239.14155615 180.79802322 -234.26355583 173.10868231 -229.36694336 165.4309082 C-226.31202579 160.64007914 -223.26879601 155.84248245 -220.24609375 151.03125 C-219.32062744 149.56328979 -219.32062744 149.56328979 -218.37646484 148.06567383 C-217.20763679 146.21112284 -216.04232048 144.3543516 -214.88134766 142.49487305 C-203.53918417 124.53559679 -191.16337484 117.14001039 -172 109 C-170.23514666 108.23820682 -168.47082026 107.47519169 -166.70703125 106.7109375 C-162.34774466 104.82653826 -157.97994596 102.96300239 -153.60791016 101.10839844 C-150.96917299 99.98689809 -148.33403841 98.85723174 -145.69921875 97.7265625 C-144.00793527 97.00492054 -142.31653378 96.28355506 -140.625 95.5625 C-139.85857178 95.23241943 -139.09214355 94.90233887 -138.30249023 94.56225586 C-125.21860397 89.01375922 -111.14434867 87.48521706 -97.62890625 92.7109375 C-94.09513908 94.44369109 -90.9034928 96.48899068 -87.7421875 98.828125 C-86.07335632 100.18604337 -86.07335632 100.18604337 -84 100 C-82.32858149 97.78382287 -80.77984891 95.562013 -79.25 93.25 C-78.25227213 91.77017884 -77.25352717 90.29104306 -76.25390625 88.8125 C-75.7242627 88.02617187 -75.19461914 87.23984375 -74.64892578 86.4296875 C-71.87265408 82.33885896 -69.02910443 78.29559334 -66.1875 74.25 C-64.99343961 72.54691003 -63.79942969 70.84378469 -62.60546875 69.140625 C-62.00911621 68.29048828 -61.41276367 67.44035156 -60.79833984 66.56445312 C-57.86275013 62.37826872 -54.93159134 58.18898491 -52 54 C-50.83594837 52.33723197 -49.67188586 50.67447157 -48.5078125 49.01171875 C-45.55259359 44.79009531 -42.59926002 40.56715604 -39.64624023 36.34399414 C-37.89984875 33.84801436 -36.15127576 31.35357508 -34.40234375 28.859375 C-32.13547687 25.62599438 -29.87885066 22.3858003 -27.62890625 19.140625 C-26.56520121 17.61451569 -25.50140345 16.088471 -24.4375 14.5625 C-23.96103027 13.87067627 -23.48456055 13.17885254 -22.99365234 12.46606445 C-16.67932077 3.43933324 -11.45719236 -1.64326265 0 0 Z " fill="#FECDBE" transform="translate(296,46)"/>
<path d="M0 0 C3.72346655 1.46212663 6.76047476 3.67440705 10 6 C11.40907776 6.97811801 12.81933334 7.95454042 14.23046875 8.9296875 C32.665303 21.75015141 32.665303 21.75015141 35 29 C36.19153341 38.36204822 30.2639187 45.35551598 24.9375 52.5 C23.76674919 54.09526909 22.59750352 55.69164376 21.4296875 57.2890625 C20.84928711 58.0821582 20.26888672 58.87525391 19.67089844 59.69238281 C17.24215681 63.04662972 14.89511458 66.45348406 12.5625 69.875 C7.3109761 77.56569324 1.97883796 85.19781108 -3.37109375 92.8203125 C-5.83261906 96.32840243 -8.28192464 99.84460081 -10.72265625 103.3671875 C-20.88030739 118.00353746 -20.88030739 118.00353746 -25.0625 123.0625 C-29.97873684 129.02252386 -34.18159756 135.48172087 -38.51171875 141.87109375 C-41.93960593 146.92681846 -45.4285678 151.9377872 -48.9375 156.9375 C-49.51838379 157.76556152 -50.09926758 158.59362305 -50.69775391 159.44677734 C-51.8761817 161.12601253 -53.05489285 162.80504892 -54.23388672 164.48388672 C-57.16021864 168.65291862 -60.07978099 172.8266852 -63 177 C-64.16663389 178.66668961 -65.33330057 180.33335627 -66.5 182 C-67.0775 182.825 -67.655 183.65 -68.25 184.5 C-101.5 232 -101.5 232 -103.25292969 234.50415039 C-104.4098745 236.15695179 -105.56677613 237.8097834 -106.72363281 239.46264648 C-109.7886753 243.84171128 -112.85464821 248.22012107 -115.921875 252.59765625 C-116.56253906 253.51224609 -117.20320312 254.42683594 -117.86328125 255.36914062 C-119.0947772 257.12714571 -120.32653606 258.88496667 -121.55859375 260.64257812 C-122.11160156 261.43212891 -122.66460937 262.22167969 -123.234375 263.03515625 C-123.96479004 264.07748413 -123.96479004 264.07748413 -124.70996094 265.14086914 C-125.82509166 266.74793206 -126.91497356 268.37246033 -128 270 C-130.73457336 270.37854004 -130.73457336 270.37854004 -134.26293945 270.38476562 C-136.24188957 270.39993225 -136.24188957 270.39993225 -138.26081848 270.41540527 C-138.96920176 270.41384933 -139.67758503 270.4122934 -140.40743446 270.41069031 C-142.63358428 270.40620913 -144.85894004 270.420227 -147.08500671 270.43908691 C-151.82749109 270.47593318 -156.56989369 270.48955347 -161.3125 270.5 C-166.77388323 270.51213796 -172.23488341 270.53415713 -177.69609642 270.58000183 C-179.8678151 270.59339258 -182.0390272 270.58943058 -184.21076965 270.58459473 C-198.84999352 270.63989451 -211.4172396 272.82181417 -222.3203125 283.2109375 C-230.92262843 292.51159642 -234.74364062 301.83022232 -235.1015625 314.6328125 C-234.48850384 327.91575007 -230.06441249 339.56877541 -220.25 348.75 C-209.10114832 357.85067249 -196.71587884 359.28758178 -182.72363281 359.31884766 C-181.66849487 359.32889328 -180.61335693 359.3389389 -179.52624512 359.34928894 C-176.08520995 359.37984856 -172.64425157 359.39707962 -169.203125 359.4140625 C-166.79888256 359.43279609 -164.39464655 359.4523711 -161.99041748 359.4727478 C-155.6974264 359.52384351 -149.40441406 359.56358942 -143.11132812 359.60089111 C-136.67572873 359.64107292 -130.24021607 359.69210027 -123.8046875 359.7421875 C-111.2031872 359.83867935 -98.60163695 359.92353789 -86 360 C-85.87540017 365.22859225 -85.78519502 370.45630019 -85.7253418 375.68603516 C-85.70036373 377.46092809 -85.66636874 379.23571993 -85.62280273 381.01025391 C-85.17453433 399.75314703 -85.17453433 399.75314703 -91 408 C-91.556875 408.9075 -92.11375 409.815 -92.6875 410.75 C-100.00809286 417.872739 -107.78339098 420.31546377 -117.73168945 420.39160156 C-124.11046325 420.27372901 -128.70135544 418.59888135 -134 415 C-134.9075 414.443125 -135.815 413.88625 -136.75 413.3125 C-140.69213859 409.26085756 -145 403.79784287 -145 398 C-145.66 398 -146.32 398 -147 398 C-147.17015625 399.10021484 -147.17015625 399.10021484 -147.34375 400.22265625 C-149.1377618 407.81517048 -154.33666076 412.79352572 -160.75390625 416.80859375 C-168.13586886 420.72424348 -175.79630437 421.06260142 -184 420 C-187.73457505 418.81644149 -190.76942915 417.19422931 -194 415 C-194.9075 414.443125 -195.815 413.88625 -196.75 413.3125 C-201.94782344 407.97029257 -206.14843763 401.11720629 -206.09765625 393.55078125 C-206.09282227 392.27944336 -206.09282227 392.27944336 -206.08789062 390.98242188 C-206.07951172 390.10134766 -206.07113281 389.22027344 -206.0625 388.3125 C-206.05798828 387.41982422 -206.05347656 386.52714844 -206.04882812 385.60742188 C-206.03704983 383.40488013 -206.02060164 381.20247401 -206 379 C-208.60545453 380.87321491 -211.20908735 382.74894853 -213.8125 384.625 C-214.61333008 385.20096924 -215.41416016 385.77693848 -216.23925781 386.37036133 C-220.59492207 389.51109128 -224.92438328 392.68080345 -229.21484375 395.91015625 C-230.05748779 396.54163574 -230.90013184 397.17311523 -231.76831055 397.82373047 C-233.39321872 399.04405009 -235.01338462 400.27071613 -236.62817383 401.50439453 C-241.64247504 405.26065643 -246.42179054 408.72468539 -253 407.875 C-258.05340099 407.04403923 -261.44534145 404.71012441 -264.875 400.9375 C-267.9168389 392.99492066 -265.71460408 384.41465832 -263.296875 376.58203125 C-263.01781311 375.63994308 -262.73875122 374.69785492 -262.45123291 373.72721863 C-261.86310241 371.75294569 -261.26777657 369.78080294 -260.66552734 367.81079102 C-259.75055629 364.81432182 -258.85989279 361.81142484 -257.97265625 358.80664062 C-257.39464204 356.87718034 -256.81526108 354.94812887 -256.234375 353.01953125 C-255.97066101 352.13288284 -255.70694702 351.24623444 -255.4352417 350.3327179 C-253.29039183 343.36270361 -250.71863732 336.66236479 -246 331 C-246.87140625 330.97421875 -247.7428125 330.9484375 -248.640625 330.921875 C-263.54418986 330.21218144 -275.43458159 326.25877072 -285.8125 315.1875 C-292.97291547 306.47340948 -296.35565384 296.5042556 -296.375 285.3125 C-296.41173828 284.22291992 -296.41173828 284.22291992 -296.44921875 283.11132812 C-296.5074026 271.94972604 -291.70775049 262.68153962 -285.625 253.625 C-284.36683666 251.70075018 -283.10903433 249.77626428 -281.8515625 247.8515625 C-281.2112207 246.8812207 -280.57087891 245.91087891 -279.91113281 244.91113281 C-276.88864274 240.3071252 -273.94702586 235.6525192 -271 231 C-269.83637001 229.17029778 -268.67230632 227.34087131 -267.5078125 225.51171875 C-266.93063477 224.60470215 -266.35345703 223.69768555 -265.75878906 222.76318359 C-263.98298753 219.97327219 -262.20642613 217.18384594 -260.4296875 214.39453125 C-254.93840686 205.77225726 -249.45391721 197.14596669 -244 188.5 C-239.14155615 180.79802322 -234.26355583 173.10868231 -229.36694336 165.4309082 C-226.31202579 160.64007914 -223.26879601 155.84248245 -220.24609375 151.03125 C-219.32062744 149.56328979 -219.32062744 149.56328979 -218.37646484 148.06567383 C-217.20763679 146.21112284 -216.04232048 144.3543516 -214.88134766 142.49487305 C-203.53918417 124.53559679 -191.16337484 117.14001039 -172 109 C-170.23514666 108.23820682 -168.47082026 107.47519169 -166.70703125 106.7109375 C-162.34774466 104.82653826 -157.97994596 102.96300239 -153.60791016 101.10839844 C-150.96917299 99.98689809 -148.33403841 98.85723174 -145.69921875 97.7265625 C-144.00793527 97.00492054 -142.31653378 96.28355506 -140.625 95.5625 C-139.85857178 95.23241943 -139.09214355 94.90233887 -138.30249023 94.56225586 C-125.21860397 89.01375922 -111.14434867 87.48521706 -97.62890625 92.7109375 C-94.09513908 94.44369109 -90.9034928 96.48899068 -87.7421875 98.828125 C-86.07335632 100.18604337 -86.07335632 100.18604337 -84 100 C-82.32858149 97.78382287 -80.77984891 95.562013 -79.25 93.25 C-78.25227213 91.77017884 -77.25352717 90.29104306 -76.25390625 88.8125 C-75.7242627 88.02617187 -75.19461914 87.23984375 -74.64892578 86.4296875 C-71.87265408 82.33885896 -69.02910443 78.29559334 -66.1875 74.25 C-64.99343961 72.54691003 -63.79942969 70.84378469 -62.60546875 69.140625 C-62.00911621 68.29048828 -61.41276367 67.44035156 -60.79833984 66.56445312 C-57.86275013 62.37826872 -54.93159134 58.18898491 -52 54 C-50.83594837 52.33723197 -49.67188586 50.67447157 -48.5078125 49.01171875 C-45.55259359 44.79009531 -42.59926002 40.56715604 -39.64624023 36.34399414 C-37.89984875 33.84801436 -36.15127576 31.35357508 -34.40234375 28.859375 C-32.13547687 25.62599438 -29.87885066 22.3858003 -27.62890625 19.140625 C-26.56520121 17.61451569 -25.50140345 16.088471 -24.4375 14.5625 C-23.96103027 13.87067627 -23.48456055 13.17885254 -22.99365234 12.46606445 C-16.67932077 3.43933324 -11.45719236 -1.64326265 0 0 Z " fill="#FEBEAA" transform="translate(296,46)"/>
<path d="M0 0 C7.15319672 -0.10156178 14.30620695 -0.17153366 21.45996094 -0.21972656 C23.89264881 -0.23982071 26.32528851 -0.26710088 28.7578125 -0.30175781 C32.25793355 -0.3503706 35.75741502 -0.37299139 39.2578125 -0.390625 C40.34240753 -0.41127014 41.42700256 -0.43191528 42.54446411 -0.45318604 C48.50773808 -0.45495131 52.4296462 -0.26202545 57 4 C60.37325207 8.08771634 60.42823595 12.01662338 60.38768005 17.1157074 C60.39306559 17.92837305 60.39845113 18.7410387 60.40399987 19.57833058 C60.41829731 22.29903823 60.41117137 25.01926057 60.40405273 27.73999023 C60.40975537 29.69156282 60.41671921 31.64313207 60.42485046 33.59469604 C60.44280872 38.8942686 60.44160846 44.19367582 60.43590808 49.49326968 C60.43282011 53.91685146 60.43890432 58.3404013 60.44494683 62.76397854 C60.45899919 73.19920602 60.45742481 83.63435164 60.44604492 94.06958008 C60.43456249 104.83680471 60.44863994 115.60378029 60.4754414 126.3709721 C60.49758893 135.61442013 60.50423792 144.85778994 60.49836498 154.10126263 C60.49499201 159.62238818 60.49743318 165.14335407 60.51461601 170.66445732 C60.53006793 175.8560774 60.52614895 181.04732817 60.50731087 186.23893356 C60.50362016 188.14407213 60.50674746 190.04923794 60.51719666 191.95435143 C60.53037536 194.55576431 60.51888722 197.15594897 60.50120544 199.75730896 C60.51561295 200.88742556 60.51561295 200.88742556 60.53031152 202.04037279 C60.45872779 207.16106578 59.18477605 210.03176825 56 214 C54.23925781 215.68408203 54.23925781 215.68408203 52.453125 217.0078125 C51.44403076 217.76723145 51.44403076 217.76723145 50.41455078 218.54199219 C49.34309814 219.32558105 49.34309814 219.32558105 48.25 220.125 C47.50862793 220.67833008 46.76725586 221.23166016 46.00341797 221.80175781 C44.45454319 222.95710634 42.90290428 224.10875776 41.34863281 225.25683594 C39.02829733 226.97899761 36.72662493 228.72334935 34.4296875 230.4765625 C32.99489087 231.56783878 31.5599988 232.65898959 30.125 233.75 C29.11808105 234.51981201 29.11808105 234.51981201 28.09082031 235.30517578 C21.75903835 240.07929371 16.79388424 240.79165348 9 240 C3.91849055 237.64072775 2.03828515 235.13546157 0 230 C-0.41432891 226.84437602 -0.39242343 223.72577269 -0.36076355 220.54678345 C-0.36332682 219.60243986 -0.3658901 218.65809626 -0.36853105 217.6851362 C-0.37346711 214.52510517 -0.35697865 211.36555333 -0.34057617 208.20556641 C-0.33972986 205.93870047 -0.34020512 203.67183372 -0.34190369 201.40496826 C-0.34276491 195.25255522 -0.32511835 189.10031741 -0.30418181 182.94794512 C-0.28543635 176.51774514 -0.28366625 170.0875412 -0.28010559 163.65731812 C-0.27183875 152.8650981 -0.25309625 142.07294999 -0.22631836 131.28076172 C-0.19876926 120.16618165 -0.17753985 109.05161905 -0.16479492 97.93701172 C-0.16400675 97.25157908 -0.16321858 96.56614643 -0.16240653 95.85994311 C-0.15849133 92.42123063 -0.15470023 88.98251804 -0.15097082 85.54380536 C-0.11988516 57.02915932 -0.06683487 28.51458311 0 0 Z " fill="#463B85" transform="translate(452,226)"/>
<path d="M0 0 C3.72346655 1.46212663 6.76047476 3.67440705 10 6 C11.40907776 6.97811801 12.81933334 7.95454042 14.23046875 8.9296875 C32.665303 21.75015141 32.665303 21.75015141 35 29 C36.19153341 38.36204822 30.2639187 45.35551598 24.9375 52.5 C23.76674919 54.09526909 22.59750352 55.69164376 21.4296875 57.2890625 C20.84928711 58.0821582 20.26888672 58.87525391 19.67089844 59.69238281 C17.24215681 63.04662972 14.89511458 66.45348406 12.5625 69.875 C7.3109761 77.56569324 1.97883796 85.19781108 -3.37109375 92.8203125 C-5.83261906 96.32840243 -8.28192464 99.84460081 -10.72265625 103.3671875 C-20.88030739 118.00353746 -20.88030739 118.00353746 -25.0625 123.0625 C-29.97873684 129.02252386 -34.18159756 135.48172087 -38.51171875 141.87109375 C-41.93960593 146.92681846 -45.4285678 151.9377872 -48.9375 156.9375 C-49.51838379 157.76556152 -50.09926758 158.59362305 -50.69775391 159.44677734 C-51.8761817 161.12601253 -53.05489285 162.80504892 -54.23388672 164.48388672 C-57.16021864 168.65291862 -60.07978099 172.8266852 -63 177 C-64.16663389 178.66668961 -65.33330057 180.33335627 -66.5 182 C-67.0775 182.825 -67.655 183.65 -68.25 184.5 C-101.5 232 -101.5 232 -103.25292969 234.50415039 C-104.4098745 236.15695179 -105.56677613 237.8097834 -106.72363281 239.46264648 C-109.7886753 243.84171128 -112.85464821 248.22012107 -115.921875 252.59765625 C-116.56253906 253.51224609 -117.20320313 254.42683594 -117.86328125 255.36914062 C-119.0947772 257.12714571 -120.32653606 258.88496667 -121.55859375 260.64257812 C-122.11160156 261.43212891 -122.66460937 262.22167969 -123.234375 263.03515625 C-123.72131836 263.7300415 -124.20826172 264.42492676 -124.70996094 265.14086914 C-125.82509166 266.74793206 -126.91497356 268.37246033 -128 270 C-130.83727325 270.26667539 -133.45383045 270.34791234 -136.2890625 270.29296875 C-137.51669815 270.28660149 -137.51669815 270.28660149 -138.76913452 270.28010559 C-141.38808836 270.26328679 -144.00627802 270.22562974 -146.625 270.1875 C-148.3984264 270.17245726 -150.17186484 270.15876814 -151.9453125 270.14648438 C-156.2971703 270.11337292 -160.64845551 270.06156952 -165 270 C-160.79169792 262.53313589 -160.79169792 262.53313589 -158.4765625 259.30078125 C-158.02039551 258.65971436 -157.56422852 258.01864746 -157.09423828 257.3581543 C-156.60938965 256.68308838 -156.12454102 256.00802246 -155.625 255.3125 C-154.5516556 253.80499195 -153.47875721 252.29716627 -152.40625 250.7890625 C-151.84808594 250.00563477 -151.28992188 249.22220703 -150.71484375 248.41503906 C-147.83095638 244.3536191 -144.97846315 240.27032552 -142.125 236.1875 C-140.94011732 234.49348038 -139.75522139 232.79947003 -138.5703125 231.10546875 C-137.98024414 230.26161621 -137.39017578 229.41776367 -136.78222656 228.54833984 C-133.85623267 224.3645694 -130.9280169 220.18235476 -128 216 C-126.83332241 214.33334098 -125.66665575 212.66667431 -124.5 211 C-86 156 -86 156 -47.5 101 C-46.92161377 100.17371094 -46.34322754 99.34742188 -45.74731445 98.49609375 C-44.58968713 96.84238665 -43.43197339 95.18874004 -42.27416992 93.53515625 C-39.21846145 89.17072029 -36.16460327 84.80500404 -33.11328125 80.4375 C-32.47712891 79.52742188 -31.84097656 78.61734375 -31.18554688 77.6796875 C-29.96624342 75.93528256 -28.74746594 74.19050981 -27.52929688 72.4453125 C-26.97951172 71.65898438 -26.42972656 70.87265625 -25.86328125 70.0625 C-25.38157471 69.37285156 -24.89986816 68.68320313 -24.40356445 67.97265625 C-23.4120621 66.57913755 -22.3801103 65.2139831 -21.32104492 63.87109375 C-19.80774576 62.1094374 -19.80774576 62.1094374 -20 60 C-22.19879004 58.1898558 -22.19879004 58.1898558 -25.03125 56.3046875 C-26.06894531 55.58925781 -27.10664063 54.87382813 -28.17578125 54.13671875 C-29.2837553 53.3826672 -30.39182954 52.62876287 -31.5 51.875 C-32.60849718 51.11389879 -33.71657588 50.35218772 -34.82421875 49.58984375 C-37.54540928 47.72050417 -40.27076738 45.85756975 -43 44 C-42.0912616 39.59186895 -39.7499101 36.43180531 -37.1875 32.8125 C-36.70265137 32.11922607 -36.21780273 31.42595215 -35.71826172 30.71166992 C-34.68468474 29.2356744 -33.64847259 27.76152127 -32.60986328 26.2890625 C-30.98727786 23.9819104 -29.38089884 21.66415991 -27.77734375 19.34375 C-26.72699131 17.8330351 -25.67622151 16.32261029 -24.625 14.8125 C-24.13797607 14.10649658 -23.65095215 13.40049316 -23.14916992 12.6730957 C-16.7732075 3.58130374 -11.58059736 -1.66096217 0 0 Z " fill="#E63950" transform="translate(296,46)"/>
<path d="M0 0 C8.60832995 5.30554214 16.81923598 11.06446757 25 17 C23.4854415 21.54367549 20.92939078 25.0437218 18.0625 28.8125 C14.16193317 34.03444403 10.35860041 39.30163606 6.6875 44.6875 C2.55921715 50.73572426 -1.60886931 56.75385801 -5.8125 62.75 C-6.40135986 63.59006592 -6.99021973 64.43013184 -7.59692383 65.2956543 C-8.79832583 67.00907579 -9.9999055 68.72237271 -11.20166016 70.43554688 C-14.13724984 74.62173125 -17.06843609 78.81099592 -20 83 C-21.16664481 84.66668197 -22.3333115 86.33334862 -23.5 88 C-24.0775 88.825 -24.655 89.65 -25.25 90.5 C-41 113 -56.75 135.5 -72.5 158 C-73.07766113 158.8252417 -73.65532227 159.6504834 -74.25048828 160.50073242 C-75.41548364 162.16498828 -76.5805226 163.82921361 -77.74560547 165.4934082 C-80.68820411 169.69670923 -83.63000904 173.90056181 -86.5703125 178.10546875 C-95.69051811 191.14593813 -95.69051811 191.14593813 -100.125 197.4375 C-100.62169189 198.14559814 -101.11838379 198.85369629 -101.63012695 199.58325195 C-102.62323773 200.98119769 -103.63221247 202.36801344 -104.65698242 203.74291992 C-107.29483634 207.32185987 -109.38309703 210.69664251 -111.11328125 214.80078125 C-113.5624559 220.03461925 -115.73995944 224.22874223 -121 227 C-132.81588619 229.89557358 -145.96343157 228.66818903 -158 228 C-156.3158418 223.50493453 -153.95175912 219.98568334 -151.0625 216.1875 C-147.16193317 210.96555597 -143.35860041 205.69836394 -139.6875 200.3125 C-135.55921748 194.26427622 -131.39117075 188.24611363 -127.1875 182.25 C-126.60009033 181.41210938 -126.01268066 180.57421875 -125.4074707 179.7109375 C-124.20750505 177.99973325 -123.00739016 176.28863364 -121.80712891 174.57763672 C-120.0088917 172.01268287 -118.21299744 169.44610634 -116.41796875 166.87890625 C-110.47584475 158.38105634 -104.51945634 149.89378117 -98.53417969 141.42626953 C-92.92414591 133.48520192 -87.35389765 125.51634681 -81.78222656 117.54833984 C-78.27644757 112.53555613 -74.76781129 107.52477173 -71.25927734 102.51391602 C-68.2906009 98.27372161 -65.32353854 94.03241319 -62.359375 89.7890625 C-61.15627583 88.06769028 -59.95315112 86.34633591 -58.75 84.625 C-58.16871338 83.79250732 -57.58742676 82.96001465 -56.98852539 82.10229492 C-53.93572202 77.73749283 -50.85136631 73.39918262 -47.72387695 69.08764648 C-44.7784984 65.02314706 -41.89198201 61.02321024 -39.5625 56.5625 C-36.99660762 51.68280291 -33.70863966 47.39838875 -30.42333984 42.98925781 C-27.07901164 38.49396671 -23.84406276 33.94142703 -20.6875 29.3125 C-16.28893652 22.86828108 -11.84706949 16.45597054 -7.375 10.0625 C-6.75842529 9.17925049 -6.14185059 8.29600098 -5.5065918 7.38598633 C-4.93465088 6.5689624 -4.36270996 5.75193848 -3.7734375 4.91015625 C-3.26216309 4.17933838 -2.75088867 3.44852051 -2.22412109 2.69555664 C-1 1 -1 1 0 0 Z " fill="#F17180" transform="translate(252,89)"/>
<path d="M0 0 C3.72346655 1.46212663 6.76047476 3.67440705 10 6 C11.40907776 6.97811801 12.81933334 7.95454042 14.23046875 8.9296875 C32.665303 21.75015141 32.665303 21.75015141 35 29 C36.19148118 38.36163784 30.26426794 45.35601297 24.9375 52.5 C23.78489983 54.06916893 22.63389128 55.63950802 21.484375 57.2109375 C20.90623047 58.00081055 20.32808594 58.79068359 19.73242188 59.60449219 C16.98687911 63.40089376 14.33167177 67.25757555 11.6875 71.125 C11.21368896 71.81787109 10.73987793 72.51074219 10.25170898 73.22460938 C9.16602041 74.81518893 8.08271236 76.40739304 7 78 C1.76280453 75.11920197 -3.08722813 71.92464208 -7.9375 68.4375 C-9.4368998 67.36894895 -10.93691509 66.30126113 -12.4375 65.234375 C-13.19417969 64.69619141 -13.95085937 64.15800781 -14.73046875 63.60351562 C-18.27657792 61.09804607 -21.85496901 58.64048912 -25.4375 56.1875 C-31.31649175 52.15992726 -37.17369364 48.10362443 -43 44 C-42.0912616 39.59186895 -39.7499101 36.43180531 -37.1875 32.8125 C-36.70265137 32.11922607 -36.21780273 31.42595215 -35.71826172 30.71166992 C-34.68468474 29.2356744 -33.64847259 27.76152127 -32.60986328 26.2890625 C-30.98727786 23.9819104 -29.38089884 21.66415991 -27.77734375 19.34375 C-26.72699131 17.8330351 -25.67622151 16.32261029 -24.625 14.8125 C-24.13797607 14.10649658 -23.65095215 13.40049316 -23.14916992 12.6730957 C-16.7732075 3.58130374 -11.58059736 -1.66096217 0 0 Z " fill="#54459C" transform="translate(296,46)"/>
<path d="M0 0 C0.66 0 1.32 0 2 0 C2.15855469 0.83402344 2.31710938 1.66804688 2.48046875 2.52734375 C5.24280936 15.85067721 10.7412011 25.84447763 22 33.8125 C27.76427037 37.34000899 33.32517041 38.39842679 39.91015625 39.39453125 C43 40 43 40 45 42 C36.70905764 55.19396157 36.70905764 55.19396157 31 59 C30.34 59 29.68 59 29 59 C28.74436279 59.60126709 28.48872559 60.20253418 28.2253418 60.82202148 C26.86201663 63.24525796 25.65809331 64.26330349 23.39453125 65.84765625 C22.66524414 66.36545654 21.93595703 66.88325684 21.18457031 67.41674805 C20.40178711 67.95984619 19.61900391 68.50294434 18.8125 69.0625 C17.17779012 70.21530214 15.54368541 71.36896287 13.91015625 72.5234375 C13.08789551 73.1019043 12.26563477 73.68037109 11.41845703 74.27636719 C9.14764202 75.89477563 6.91014853 77.54796311 4.68359375 79.2265625 C3.68525513 79.97667603 3.68525513 79.97667603 2.66674805 80.74194336 C1.42309083 81.67987412 0.18340363 82.62310119 -1.05151367 83.57250977 C-5.61871973 86.99092136 -10.14885237 89.63077324 -16 88.875 C-21.05340099 88.04403923 -24.44534145 85.71012441 -27.875 81.9375 C-30.9168389 73.99492066 -28.71460408 65.41465832 -26.296875 57.58203125 C-26.01781311 56.63994308 -25.73875122 55.69785492 -25.45123291 54.72721863 C-24.86310241 52.75294569 -24.26777657 50.78080294 -23.66552734 48.81079102 C-22.75055629 45.81432182 -21.85989279 42.81142484 -20.97265625 39.80664062 C-20.39464204 37.87718034 -19.81526108 35.94812887 -19.234375 34.01953125 C-18.97066101 33.13288284 -18.70694702 32.24623444 -18.4352417 31.3327179 C-16.32716347 24.48219863 -13.81399918 17.84055428 -9.23828125 12.2265625 C-8.75939453 11.62972656 -8.28050781 11.03289062 -7.78710938 10.41796875 C-7.05717773 9.53044922 -7.05717773 9.53044922 -6.3125 8.625 C-2.83268625 4.5285135 -2.83268625 4.5285135 0 0 Z " fill="#FEA78F" transform="translate(59,365)"/>
<path d="M0 0 C6.8906461 0.78822889 11.99339859 5.53033845 17 10 C20.18102945 14.19551992 20.63173659 18.85585916 20 24 C17.61032025 30.1017152 13.82695013 35.28366965 9.9375 40.5 C8.78489983 42.06916893 7.63389128 43.63950802 6.484375 45.2109375 C5.90623047 46.00081055 5.32808594 46.79068359 4.73242188 47.60449219 C1.98687911 51.40089376 -0.66832823 55.25757555 -3.3125 59.125 C-3.78631104 59.81787109 -4.26012207 60.51074219 -4.74829102 61.22460938 C-5.83397959 62.81518893 -6.91728764 64.40739304 -8 66 C-13.53066521 62.9559336 -18.71109602 59.56558771 -23.875 55.9375 C-24.64585937 55.40833984 -25.41671875 54.87917969 -26.2109375 54.33398438 C-26.943125 53.82029297 -27.6753125 53.30660156 -28.4296875 52.77734375 C-29.42331299 52.08499634 -29.42331299 52.08499634 -30.43701172 51.37866211 C-32 50 -32 50 -33 47 C-31.86694336 44.86547852 -31.86694336 44.86547852 -30.08984375 42.37890625 C-29.43588623 41.45247314 -28.78192871 40.52604004 -28.1081543 39.5715332 C-27.39183838 38.57855225 -26.67552246 37.58557129 -25.9375 36.5625 C-25.2153833 35.54438232 -24.4932666 34.52626465 -23.74926758 33.47729492 C-22.2487403 31.36173023 -20.74436517 29.24888995 -19.23632812 27.13867188 C-15.85136587 22.38789952 -12.52190287 17.59881601 -9.1875 12.8125 C-8.0570436 11.19327405 -6.92561054 9.57472929 -5.79296875 7.95703125 C-5.3239917 7.28647705 -4.85501465 6.61592285 -4.37182617 5.92504883 C-2.94648528 3.92490416 -1.48138436 1.9588982 0 0 Z " fill="#392E6E" transform="translate(311,58)"/>
<path d="M0 0 C4.86214501 1.58019713 8.48123659 4.3856272 12.5 7.4375 C16.56677674 10.50167535 20.5612566 13.48186672 25 16 C24.63210389 21.48598019 21.31069911 25.087466 18.125 29.3125 C16.93469007 30.92466905 15.74591567 32.53797284 14.55859375 34.15234375 C13.96030762 34.96300293 13.36202148 35.77366211 12.74560547 36.60888672 C10.15901318 40.15197552 7.66361888 43.75415604 5.1875 47.375 C4.74253174 48.02509033 4.29756348 48.67518066 3.83911133 49.3449707 C-0.15440814 55.19852614 -4.09266132 61.08861083 -8 67 C-11.84013888 65.21481147 -13.35317643 64.03471775 -15 60 C-15.71692381 52.37489999 -14.49007422 45.72073449 -12.2265625 38.4765625 C-11.94275726 37.52735931 -11.65895203 36.57815613 -11.36654663 35.60018921 C-10.46673797 32.60400501 -9.54602901 29.61472008 -8.625 26.625 C-8.0142916 24.59805752 -7.40490505 22.57071628 -6.796875 20.54296875 C-2.03327359 4.74920745 -2.03327359 4.74920745 0 0 Z " fill="#FECDBE" transform="translate(45,384)"/>
<path d="M0 0 C0.66 0 1.32 0 2 0 C2.15855469 0.83402344 2.31710938 1.66804688 2.48046875 2.52734375 C5.24280936 15.85067721 10.7412011 25.84447763 22 33.8125 C27.76427037 37.34000899 33.32517041 38.39842679 39.91015625 39.39453125 C43 40 43 40 45 42 C42.36 45.63 39.72 49.26 37 53 C32.42150474 51.1686019 28.79888265 48.98728898 24.8125 46.1875 C23.776698 45.46759888 23.776698 45.46759888 22.7199707 44.7331543 C14.403801 38.92868569 6.19895731 32.96825711 -2 27 C-3.1939078 26.13267123 -4.38790977 25.26547206 -5.58203125 24.3984375 C-8.05608203 22.60086017 -10.52889368 20.80162157 -13 19 C-10.13691144 13.5124136 -6.64549838 8.90818264 -2.70703125 4.13671875 C-0.97122999 2.11652223 -0.97122999 2.11652223 0 0 Z " fill="#F27482" transform="translate(59,365)"/>
<path d="M0 0 C0.68964844 0.39832031 1.37929687 0.79664063 2.08984375 1.20703125 C10.86570606 6.15473963 19.15928593 9.02255155 29 11 C26.6163187 15.34170523 24.21880117 19.2064129 21 23 C16.06169236 21.3667828 12.15032681 18.52422151 7.9375 15.5625 C7.23044922 15.07201172 6.52339844 14.58152344 5.79492188 14.07617188 C2.48592806 11.77385787 -0.79955368 9.45229004 -4 7 C-2.79618552 4.50638429 -1.54571278 2.31856917 0 0 Z " fill="#E63D53" transform="translate(75,395)"/>
</svg>
